<?xml version="1.0" standalone="no"?>
<!DOCTYPE svg PUBLIC "-//W3C//DTD SVG 1.1//EN" "http://www.w3.org/Graphics/SVG/1.1/DTD/svg11.dtd" >
<svg xmlns="http://www.w3.org/2000/svg">
<metadata></metadata>
<defs>
<font id="beckettregular" horiz-adv-x="690" >
<font-face units-per-em="2048" ascent="1638" descent="-410" />
<missing-glyph horiz-adv-x="563" />
<glyph unicode="&#xd;" horiz-adv-x="563" />
<glyph unicode=" "  horiz-adv-x="563" />
<glyph unicode="&#x09;" horiz-adv-x="563" />
<glyph unicode="&#xa0;" horiz-adv-x="563" />
<glyph unicode="!" horiz-adv-x="419" d="M-2 633l20 12l41 29q6 6 11.5 14t15.5 27l4 14v524q0 37 -31 62q-16 10 -28 14l24 12q61 31 95 70l67 80l14 18l78 -96l37 -43l25 -24l-33 -13q-31 -20 -33 -51v-616l55 -60l-36 -18l-74 -49l-100 -80l-25 37q-10 16 -25.5 37.5t-23.5 29.5q-25 27 -64 58zM82 127l2 27 l4 24l4 21v39q8 27 35 26l23 -6h38l41 6l31 2q12 -4 17.5 -12.5t5.5 -24.5q-12 -31 -13 -57q0 -29 13 -45l-7 -25q-12 -12 -32 -10l-64 10l-45 -6l-29 -4q-20 0 -24 35z" />
<glyph unicode="&#x22;" horiz-adv-x="206" d="M2 1475q0 23 4 32t23 9l9 -4.5t9 -8.5l8 -28l-16 -111l-6 -94l-21 108zM94 1475l4 30q4 10 23 11l9 -4.5t9 -8.5l8 -28l-16 -111l-6 -94l-19 108z" />
<glyph unicode="#" horiz-adv-x="1071" d="M0 442l12 58q18 68 47 90q12 14 49 23.5t125 9.5v174v71l-147 -2q-80 0 -86 -28q4 31 6 34q18 82 53 113q12 14 54 25l120 8v33v24l-2 125q-2 25 -20 47l29 -10q37 -16 90 -55q29 -20 41 -57.5t12 -106.5h174h72v33v24v66q0 35 -4 59q0 25 -21 47l31 -10q31 -14 88 -55 q31 -23 43 -59t12 -105h33h27l123 2q27 4 47 20l-17 -45l-49 -75q-20 -29 -59 -40.5t-105 -11.5l2 -94v-65v-86h33h27l121 2q24 4 47 20l-11 -29q-16 -37 -55 -90q-23 -31 -57 -43q-41 -10 -107 -10l2 -149q0 -78 29 -84l-59 12q-66 20 -88 47q-20 14 -26.5 48t-6.5 126 l-92 -2l-68 -2h-86l2 -145q0 -78 29 -84l-60 12q-66 20 -88 47q-16 14 -26 53q-6 37 -7 121l-147 -2q-80 0 -86 -29zM383 864l2 -71l2 -84v-86h170h72v174v71l-92 -2l-68 -2h-86z" />
<glyph unicode="$" horiz-adv-x="1019" d="M0 6q0 127 68 244q20 35 69 90l234 313q-20 0 -74 27q-86 43 -139 115q-76 102 -76 258v166l78 4q88 12 170 59q72 45 159 143l74 91q8 -20 15.5 -33t19.5 -29q51 -66 121 -84l100 -20l86 -4h31l10 2l-78 -123l-49 -97l-12 -32l-21 6l-114 -154q16 0 71 -24 q86 -41 136 -109q73 -99 73 -242q0 -197 -78 -264q-117 -51 -198 -104q-86 -66 -172 -146l-62 -59l-61 51q-76 51 -143 51q-117 0 -181 -108q-18 -35 -43 -111l-10 62zM223 356l10 9q31 23 105 22q80 0 194 -63q29 -16 58 -33q31 -23 45 -33l6 66l4 125q0 119 -102 165 q-10 4 -43 12.5t-60 14.5zM360 1225l11 -86q12 -94 37.5 -129t99.5 -58l67 -10l134 180q-16 6 -47 11l-95 6q-70 0 -145 41z" />
<glyph unicode="%" horiz-adv-x="870" d="M0 709v305q0 35 35 69.5t85 52t79 44.5l22 20l17 -4q43 -14 73 -49q25 -29 29 -37l10 -20l12 -23v-373l-73 -4q-33 0 -56.5 -19.5t-44.5 -56.5l-14 -30h-24q-61 6 -95.5 38.5t-42.5 46t-12 40.5zM63 51l699 1159l53 -30l-698 -1160zM106 1012l3 -135l6 -123q0 -12 18 -25 l39 -20q39 -16 70 -17q16 0 20 6q2 6 4 19.5t2 23.5l2 58l-2 137l-6 117q0 14 -6 21t-31 20l-47 20q-23 8 -43 8q-14 0 -18 -3t-11 -34v-73zM459 121v307q0 37 35 72q25 25 73 47q59 23 90 47l23 20l31 -10q33 -12 55 -38.5t43 -61.5l10 -23v-372l-74 -5q-33 0 -59 -22 q-6 -8 -12 -14q-16 -20 -27 -39l-16 -31h-25q-57 6 -96 41q-29 27 -40 45t-11 37zM563 428l2 -135l4 -105q2 -33 21 -45l37 -22q37 -14 71 -15q19 1 23 5l6 45l2 57l-2 137l-6 117q0 14 -8 22q-4 8 -35 23l-43 18q-10 4 -20.5 6.5t-20.5 2.5q-14 0 -22.5 -7.5t-8.5 -103.5z " />
<glyph unicode="&#x26;" horiz-adv-x="1284" d="M2 410q0 162 64 264q45 72 122 112q47 23 68 25q-39 41 -55.5 88t-16.5 164q0 156 115 246q72 59 215 100q59 18 137 64l66 43l94 -74q94 -90 94 -164q0 -111 -16.5 -173.5t-64.5 -128t-134 -97.5l-78 -25q23 -31 56.5 -74t62.5 -75l64 -70l30 27q10 12 24.5 28.5 t19.5 34.5t7.5 30.5t2.5 45.5v39l-2 8l61 -10l115 -11q23 0 49 2t57 9l51 10v-27q-12 -63 -59 -131q-23 -33 -76 -49q-37 -10 -92 -10h-37h-35h-18q-25 -10 -41 -37l-14 -27l118 -141l129 -137l62 -62q16 -16 53 -28l35 -4l-51 -29q-20 -12 -40 -27.5t-34 -29t-35.5 -41 t-34.5 -43.5l-20 -27l-326 295l-69 -55l-72 -54q-31 -23 -53.5 -53.5t-40.5 -69.5l-23 -63q-18 0 -26 -4l-33 -2q-141 0 -244 88q-131 111 -131 330zM252 563q0 -27 1 -59.5t17.5 -90t57.5 -98.5q20 -18 45.5 -38.5t46.5 -32.5q45 -23 84 -23q37 0 69.5 21.5t57.5 52.5 l24 31l-106 145q-45 61 -68 90q-37 49 -100 125l-98 80q-14 -29 -22.5 -80t-8.5 -123zM414 1206q0 -102 86 -219q18 -25 34.5 -43t53.5 -53l12 -4q16 0 23 26l8 78l-6 96l-7 119q0 61 -24.5 115.5t-69.5 54.5q-49 0 -79.5 -41t-30.5 -129z" />
<glyph unicode="'" horiz-adv-x="108" d="M2 1475q0 23 4 32t23 9l9 -4.5t9 -8.5l8 -28l-16 -111l-6 -94l-21 108z" />
<glyph unicode="(" horiz-adv-x="477" d="M0 750q0 201 106 393q78 141 203 270q97 98 109 98q-4 -12 -8 -20q-18 -43 -27 -66q-18 -53 -35.5 -118.5t-32.5 -130.5q-16 -98 -26 -198.5t-10 -197.5q0 -209 30 -409q18 -139 56 -273q16 -55 21 -69.5t11 -28.5q-14 0 -104 96q-113 119 -191 262q-102 195 -102 392z " />
<glyph unicode=")" horiz-adv-x="456" d="M-12 1516q16 -12 28 -23q29 -25 81.5 -78t105.5 -123.5t92 -142.5q111 -200 111 -395t-103 -389q-70 -137 -190 -265q-84 -92 -103 -96l29 98q14 49 30.5 131t26.5 142q31 207 31 409q0 207 -37 396q-20 129 -67 250q-12 35 -31 73q-2 4 -4 13z" />
<glyph unicode="*" horiz-adv-x="1085" d="M12 821l6 35q18 78 54 113q27 27 67 26l199 6l-174 173q-12 12 -32.5 23t-37.5 15l15 9q43 18 116 30l21 2q55 0 196 -143v154l-2 106q0 31 -20 57l45 -16q27 -14 73 -48t54 -116l2 -137q68 66 92 90q61 61 78 82q29 29 39 72l14 -29q16 -43 25 -104l2 -17 q0 -63 -146 -203h156l119 3q26 4 49 20l-18 -45l-50 -74q-33 -43 -112 -53h-140q215 -223 250 -207q-14 -10 -28.5 -18.5t-24.5 -12.5q-55 -31 -96 -30q-31 0 -74 30q-23 18 -50.5 44t-84.5 85v-131l2 -137q0 -47 29 -53q-20 0 -37 6q-72 14 -113 51q-20 25 -26.5 70 t-6.5 196l-120 -118q-86 -86 -91 -121l5 -10l-31 51q-31 55 -31 94q0 31 31 74q25 35 125 137h-127h-72t-63 -4q-45 0 -56 -27z" />
<glyph unicode="+" horiz-adv-x="681" d="M2 629l8 37q4 12 10.5 27.5t18.5 27.5t41 18l108 2h84v158l-2 62q0 33 -14 47l18 -4q27 -10 58 -37q18 -12 26.5 -39t8.5 -86l-2 -45v-41v-15h157h62q33 1 49 15l-6 -17q-8 -20 -35 -57q-16 -23 -43 -31l-80 -6h-43l-45 2h-14l-2 -86v-78l2 -71q2 -29 18 -33l-37 8 q-37 10 -55 25q-14 16 -19 43l-2 108v82h-88l-78 2l-71 -2q-27 0 -33 -16z" />
<glyph unicode="," horiz-adv-x="192" d="M-2 51q49 43 88 47q47 1 47 -75q0 -37 -43 -86l-92 -80l35 57q27 47 26 68q0 29 -61 69z" />
<glyph unicode="-" d="M10 629l8 37q10 39 25.5 53t42.5 20l107 2h165h168h64q31 1 51 15l-6 -17q-8 -23 -37 -57q-12 -20 -41 -28.5t-88 -8.5h-68h-71h-27l-104 2l-86 2q-96 0 -103 -20z" />
<glyph unicode="." horiz-adv-x="184" d="M6 23l2 24l2 14v15q6 12 19 16l12 -4h22l21 2l16 2q11 -2 11 -18l-7 -33l7 -23q0 -23 -21 -16l-33 6l-18 -4l-21 -2q-12 0 -12 21z" />
<glyph unicode="/" horiz-adv-x="851" d="M8 199l699 1157l73 -51l-700 -1160z" />
<glyph unicode="0" horiz-adv-x="798" d="M-2 303v760q0 92 74 178q61 74 153 117q113 51 187 115q20 18 45 51q23 -2 37 -13q86 -35 147 -118q55 -82 90 -162l12 -33v-926h-57.5t-52.5 -4q-121 -12 -160 -57t-82 -133l-35 -76h-49q-29 6 -39 8q-100 23 -162.5 92.5t-85 115.5t-22.5 85zM215 1061l4 -307l8 -258 l4 -74q0 -33 37 -64l82 -49q33 -20 70 -31.5t72 -11.5q26 1 49 15q6 2 12 69l2 178l-2 246l-6 240l-6 141q0 41 -15.5 59.5t-74.5 55.5q-39 25 -92.5 45t-82.5 20t-43 -14t-14 -86q0 -23 -2 -80t-2 -94z" />
<glyph unicode="1" horiz-adv-x="536" d="M2 1356q12 23 18.5 34t12.5 17q35 53 65 63l43 9l33 2q37 0 70 -17l63 -30l90 88v-379l-2 -457v-410q0 -37 39 -67l41 -21l-39 -32q-16 -14 -32.5 -30.5t-24.5 -27.5l-55 -78l-17 -22l-119 139q-20 27 -73 58l-27 12l29 29q31 35 30 65v983v25q-6 57 -77 57 q-23 0 -68 -10z" />
<glyph unicode="2" horiz-adv-x="876" d="M8 -2v31l8 186q0 109 134 242l133 116q135 115 184 181q104 139 104 301q0 61 -14 112.5t-47 98.5q-66 100 -172 100q-72 0 -102 -88q-23 -68 -23 -176q0 -119 14 -228l9 -47q-37 0 -59.5 5.5t-53.5 19.5q-113 49 -113 184l2 31q0 154 164 250l135 80l144 96l45 29 q37 0 84 -17q90 -31 151 -104q82 -103 82 -279q0 -188 -104 -327q-78 -100 -230 -191l-225 -127q-82 -55 -135 -127q-25 -35 -47 -104h622q39 0 82 16l29 19l-96 -134q-16 -18 -25.5 -35.5t-32.5 -60.5l-20 -53h-627z" />
<glyph unicode="3" horiz-adv-x="829" d="M-2 360q0 172 123 228q25 12 52.5 17t68.5 5l-19 -47q-18 -66 -18 -145q0 -80 43 -139.5t117 -83.5q55 -16 98 -17q43 0 63 21q10 16 11 57l4 131v174q0 145 -15 201q-4 16 -13 33.5t-24 35.5q-20 29 -54 48.5t-79 19.5q-106 0 -188 -35l-55 -37l61 109q80 119 174 184 q61 45 137 109q33 27 68 55l55 59h-96h-152q-41 0 -88 -6t-108 -22l-101 -31l13 16q20 27 38.5 56.5t28 46t20.5 44.5t15 40l6 35h596l-45 -99q-63 -115 -156.5 -182t-172.5 -141q-16 -14 -35 -35t-27 -31l37 4l37 2q35 0 66.5 -5t52.5 -9q59 -12 100 -45q76 -63 94 -96 q49 -87 49 -269l-2 -153q0 -76 -51 -150q-23 -31 -86 -75l-125 -76q-25 -16 -60.5 -46t-68.5 -61l-53 -57q-27 0 -43.5 2t-44.5 8q-98 23 -160 90q-88 98 -88 262z" />
<glyph unicode="4" horiz-adv-x="780" d="M0 526l2 125q0 39 90 197l137 223l277 451l18 -31q43 -68 80 -111l76 -75l18 -15l-26 -4q-27 -12 -29 -45l2 -969q0 -66 37 -94q10 -8 37 -18l-84 -94l-57 -68l-95 123q-8 14 -55 45l-41 29q18 2 27.5 20t9.5 57v254h-424zM43 662q0 -16 14 -17h365v606l-51 -34 q-43 -55 -81 -114t-75 -128l-104 -168q-68 -115 -68 -145z" />
<glyph unicode="5" horiz-adv-x="886" d="M0 350q0 150 121 228q35 23 121 47l-27 -37q-6 -14 -16.5 -44t-10.5 -59q0 -141 76 -229q63 -76 150 -76q43 0 71.5 21.5t43 85t14.5 192.5v37v25q0 121 -23 209q-31 121 -90 155q-39 20 -94 21q-74 0 -139 -37q-49 -29 -95 -74l-32 -41l6 76q14 164 30 268l35 254 l15 148l671 2l-22 -13q-20 -12 -37 -24q-31 -23 -54.5 -50.5t-47.5 -74.5l-17 -37l-471 -2l-33 -193l-22 -192l-6 -55l47 30l104 62q51 25 113 86l49 57q53 -6 88 -18q100 -35 164 -125q49 -72 68 -176q10 -78 10 -176v-48q0 -170 -62.5 -266t-183.5 -133q-76 -23 -133 -100 l-39 -76q-104 0 -203 68q-139 96 -139 284z" />
<glyph unicode="6" horiz-adv-x="790" d="M2 653q0 246 33 387.5t121 264.5q68 94 198 168q43 23 113 49l18 -31l45 -68q16 -18 19 -20q16 -16 41 -35l31 -20l-68 -2q-160 -29 -244 -201q-43 -80 -65 -203l-13 -96l27 14q33 20 51 35q27 20 43 37q27 27 49 63q4 12 17 29l24 2h35t58 -8t86 -35q57 -41 84.5 -143.5 t27.5 -278.5q0 -193 -92 -307q-70 -84 -223 -135q-76 -20 -113 -74l-18 -47l-51 29l-119 79q-61 49 -88 206t-27 341zM215 530l6 -118q6 -57 23 -103q31 -100 82 -119l49 -12q37 -14 71 -14q33 0 50.5 13t23.5 50q10 57 10 185q0 127 -13 224t-46 150q-18 35 -40.5 47.5 t-47.5 16.5q-33 0 -68 -29q-10 -6 -21 -17t-32.5 -33.5t-34.5 -90.5q-4 -37 -8 -75t-4 -75z" />
<glyph unicode="7" horiz-adv-x="921" d="M-2 1313l31 33l57 67q29 39 51 86l10 23h715l-43 -68l-119 -197q-78 -127 -182 -311q-37 -66 -59 -182q-16 -115 -17 -234l7 -133l10 -112q0 -51 37 -80l41 -21l-31 -20l-55 -47l-56 -72l-35 -47l-18 35q-25 45 -59 76q-10 10 -25 22q-27 23 -61 45l-50 29l27 16 q23 23 25 55v39q0 72 2 122t10 102q14 160 72 280q47 102 127 221l137 201q27 37 49 66q6 8 18 22l-98 14q-82 8 -172 9q-117 0 -244 -19q-23 -4 -46 -7t-56 -13z" />
<glyph unicode="8" horiz-adv-x="851" d="M-2 397q0 172 108 275q35 33 107 67q-55 33 -82 64q-84 94 -84 231q0 135 53.5 208t192.5 120q104 31 172 98l41 62q6 0 74 -45q37 -25 72.5 -61t62.5 -73q76 -106 76 -223q0 -168 -93 -241q-37 -27 -94 -41q23 -10 34 -15.5t24 -15.5q133 -90 133 -301q0 -96 -47 -176 q-72 -117 -238 -172q-86 -29 -137 -76q-27 -27 -49 -84q-14 0 -82 41q-98 57 -158 133q-86 109 -86 225zM242 449l2 -68q4 -31 13 -54.5t31.5 -52t55.5 -55.5q61 -47 115 -41q53 10 65 90l13 129l4 31v25q0 170 -142 206q-78 18 -118 43l-15 11l-12 -88q-12 -109 -12 -176z M252 1182q0 -37 2 -57.5t15.5 -75t50 -94.5t88.5 -58l102 -33l45 -16l14 51q6 31 10.5 61.5t4.5 61.5q0 49 -6 70q-3 28 -19 65q-33 80 -90 137.5t-113 57.5q-25 0 -53 -17q-51 -39 -51 -153z" />
<glyph unicode="9" horiz-adv-x="806" d="M-2 909q0 147 41 252q61 152 186 186.5t193 108.5q23 23 43 66q199 -49 260 -250q29 -103 29 -330q0 -106 -4.5 -188t-12.5 -152q-31 -225 -129 -385q-74 -117 -174 -174q-31 -18 -78 -31.5t-94 -13.5l-2 31q-6 35 -31 69q-8 10 -30.5 27.5t-47.5 32.5l-24 10l10 -4 l27 -2q59 0 123 35q90 55 172 178q35 51 49 107.5t14 97.5q0 53 -8 84l-6 16l-33 -23q-43 -31 -76 -69q-20 -25 -37.5 -52.5t-29.5 -56.5l-9 -22q-156 0 -249 174q-72 139 -72 278zM205 1143q0 -121 21.5 -246t49.5 -168q41 -57 89 -57q35 0 61 20q18 12 31.5 24.5 t29.5 35.5q16 18 25.5 65t9.5 115q0 59 -2 90t-13 108.5t-27.5 122.5t-63.5 64q-20 8 -47 14t-54 6q-49 0 -69 -12q-20 -8 -30.5 -54t-10.5 -128z" />
<glyph unicode=":" horiz-adv-x="163" d="M-2 23l4 24v14v15q8 14 18 16l13 -4h22l21 2l16 2q12 -4 12 -18l-8 -33l6 -23q4 -23 -18 -16l-35 6l-18 -4l-19 -2q-14 0 -14 21zM-2 610l4 25v16v15q8 14 18 16l13 -6h22l21 4l16 2q12 -6 12 -20l-8 -31l6 -23q4 -20 -18 -18l-35 6l-18 -2l-19 -4q-14 0 -14 20z" />
<glyph unicode=";" horiz-adv-x="198" d="M-2 51q49 43 88 47q47 1 47 -75q0 -37 -43 -86l-92 -80l35 57q27 47 26 68q0 29 -61 69zM6 610l2 25l2 16v15q6 12 19 16l12 -6h22l21 4l16 2q11 -6 11 -20l-7 -31l7 -23q0 -20 -21 -18l-33 6l-18 -2l-21 -4q-12 0 -12 20z" />
<glyph unicode="&#x3c;" horiz-adv-x="514" d="M2 766l356 586l88 -33l-335 -555l338 -565l-89 -31z" />
<glyph unicode="=" horiz-adv-x="681" d="M2 381l8 37q12 39 27.5 55t40.5 19l106 4h166h168h66q33 0 49 14l-6 -18l-35 -58q-14 -18 -45 -28l-86 -9h-66l-73 2h-27l-105 2h-84q-96 0 -104 -20zM2 629l8 37q4 12 10.5 27.5t18.5 27.5t39 18l106 2h166h168h66q33 1 49 15l-6 -17q-8 -20 -35 -57q-12 -20 -43 -28.5 t-88 -8.5h-66h-73h-27l-105 2l-84 2q-96 0 -104 -20z" />
<glyph unicode="&#x3e;" horiz-adv-x="509" d="M0 199l338 565l-336 555l88 33l359 -586l-361 -598z" />
<glyph unicode="?" horiz-adv-x="686" d="M8 1303q0 104 60.5 157t167.5 53q199 0 297 -90t98 -254v-39q-6 -35 -8 -53q-12 -86 -80 -188q-57 -84 -58 -221l4 -121l48 -58l-31 -14l-70 -43q-14 -10 -26.5 -19.5t-30.5 -27.5l-25 -27l-16 52q-23 59 -35 77l-78 97l21 12l33 25q8 6 24 30l6 19v141q0 76 49 154 l50 69q43 59 59 98t16 70t-18 66l-23 51q-37 76 -63.5 104.5t-63.5 28.5q-33 0 -48 -24.5t-15 -102.5q0 -84 -31 -125q-37 -37 -90 -37t-90 41q-33 43 -33 99zM246 100l2 33l4 21q4 6 4 20v25v20q12 33 37 33q10 0 31 -10l20 -2l27 2l39 8q25 8 39 4l20 -14q6 -6 6 -29 l-10 -33l-6 -33q0 -20 12 -49q0 -25 -10 -35t-31 -6l-39 8l-31 5l-43 -7l-41 -6q-31 6 -30 45z" />
<glyph unicode="@" horiz-adv-x="1118" d="M2 686q0 244 107 399q84 117 229 177q49 18 105.5 30.5t105.5 12.5q51 0 99 -6.5t89 -16.5q131 -37 213 -145q103 -139 103 -387q0 -227 -62 -367q-51 -111 -133 -158q-61 -37 -125 -37q-16 0 -24 5l-33 18q-27 18 -42.5 35.5t-35.5 62.5l-12 37l-33 -16 q-4 -2 -19.5 -13.5t-31 -26t-47.5 -59.5l-27 -38l-41 14q-45 18 -64.5 32.5t-48.5 63.5l-20 43v590q16 0 28.5 2t32.5 6q74 18 131.5 58t90.5 83l16 33l20 -16q51 -37 109 -66l135 -67q-25 -4 -37 -49q-6 -47 -6 -172v-107q0 -186 9.5 -235.5t41.5 -59.5q37 61 58 109 q57 143 57 290q0 207 -74 318q-94 137 -307 137q-217 0 -333.5 -132t-116.5 -376q0 -285 81 -424q102 -176 357 -176l90 -2l72 -2q63 0 97 16.5t114 73.5q-23 -70 -130.5 -124t-242.5 -54q-117 0 -207 33q-143 51 -229 184q-109 174 -109 469zM434 471l4 -22q6 -27 27 -41 l29 -33q6 -8 12 -10.5t10 -4.5l25 5q14 4 22 18l27 39v375l8 14l16 27l7 30q0 21 4 33l-39 4q-29 4 -35 6q-18 8 -25 11l-32 24q-18 12 -35 17l-21 -7z" />
<glyph unicode="A" horiz-adv-x="1468" d="M0 86q0 102 59 180q25 35 52.5 57.5t72.5 47.5q23 14 88 20l123 6h84q35 0 51 -4l91 146l-56 -2h-51q-78 0 -125 14t-94 59q-33 35 -55.5 69t-42.5 73q-39 88 -39 190q0 82 23.5 195.5t142.5 222.5q98 86 231 131l90 20l100 5q74 0 155 -12.5t147.5 -31t97.5 -47.5 l57 -55q37 0 66 27l22 30q25 35 39 23q6 -12 6 -16q0 -20 -18 -62q-4 -16 -21 -39v-211v-319v-365l2 -194q0 -8 13 -21l26 -6l17 2l-47 -53l-76 -78l-88 -94l-68 80l-37 32l-14 13l-4 137l-131 -111q-18 -16 -58 -79l-30 -62l-174 88q-14 6 -35 12.5t-78 16.5l-65 6l-29 -41 q-43 -53 -85 -89t-89 -54.5t-92 -18.5q-63 0 -99 27q-55 37 -55 135zM106 49l5 -37q16 -39 65 -39l51 9l56 26q23 12 47 41q16 20 32 41l33 55l-26 9q-27 6 -37 8t-33 2q-53 0 -102 -21q-90 -41 -91 -94zM233 852q0 -98 70 -180q57 -66 127 -88q33 -8 90 -9l70 3l55 6 l356 614l-36 35q-18 16 -41 31.5t-52.5 32t-78 27.5t-95.5 11q-82 0 -162.5 -28.5t-144.5 -81.5q-78 -68 -118 -162t-40 -211zM592 387h22q59 -10 121 -53l72 -37q14 -4 31.5 -7t29.5 -5q43 0 78 30q8 8 19.5 21.5t21.5 30.5l31 59l4 10l-2 107l-2 12l-12 20l-17 9l-12 4 l-268 2zM788 707q0 -12 9 -21l20 -10q31 -12 107 -12q33 0 49 8l28 16l17 25l2 16v397l-232 -397v-22z" />
<glyph unicode="B" horiz-adv-x="1366" d="M2 66v20q12 104 87 188t196 84l37 -2q125 -12 217 -37q12 -2 33.5 -8t41.5 -14l11 14q10 25 10 41q0 20 -8 39q-14 27 -29 39q-20 20 -36.5 32.5t-33 22t-30 13.5t-25.5 4l-18 -6l-37 -7l-45 -4h-23l-8 2l-6 9q-12 18 -17 49l3 20q6 35 28 66l21 24l-56 -14 q-55 -29 -55 -84q0 -51 31 -104l31 -41q-61 18 -91 37q-90 53 -90 147q0 131 101 211q16 12 41.5 24.5t56.5 22.5q4 18 5 27.5t7 23.5q41 119 201 207q102 53 166 98q29 23 38 30t29 30l-100 -19q-53 -6 -127 -12t-121 -6q-168 0 -253 -36t-85 -124q0 -76 37 -106 q23 -20 72 -21q27 0 57 12l23 15q-2 -14 -13 -25q-17 -22 -57 -22h-4q-70 0 -129 47q-84 63 -84 178v35q16 139 121 217q90 70 205 70q66 0 207 -67t190 -67q27 0 43 20.5t35 94.5q12 59 55 59l16 -6q10 -12 11 -18l-11 -35l-16 -47l-37 -113l29 2q29 2 65 25q14 8 46 55 l12 21q39 -6 63 -21q76 -33 120 -82t53.5 -66.5t18.5 -51t9 -82.5q0 -162 -111 -260q-35 -29 -112 -64l67 -6q82 -16 146 -55q27 -20 39 -72.5t12 -130.5q0 -59 -2 -92t-12 -101l-7 -43q-31 0 -59.5 -3t-66 -10t-79.5 -22.5t-85 -35.5q-70 -31 -121 -119l-39 -80l-301 76 q-12 -39 -57 -74q-18 -14 -58.5 -37.5t-50.5 -30.5q-55 -28 -130 -28h-5q-82 0 -139 35q-63 43 -64 125zM147 18q0 -37 28 -54t71 -17l49 6l41 10q53 18 94 57q33 31 53 62l-71 18l-47 6l-52 5q-76 0 -121 -21.5t-45 -71.5zM625 956q0 -61 30 -129q80 -156 86 -190l4 -92 l-6 -158v-41q-6 -25 -8 -35q12 -8 31 -8l29 -2v887q-31 -6 -75 -35t-63 -61q-28 -45 -28 -130v-6zM811 299q23 -6 45.5 -19.5t93.5 -23.5l29 -4l4 197v30v25q0 86 -6 117q0 35 -18.5 59.5t-65.5 24.5q-23 0 -47 -9l-35 -16v-381zM811 817q10 -16 49 -16q25 0 46.5 7t39 22.5 t25.5 42t8 106.5q0 86 -4 118.5t-25 59.5q-10 12 -51 25l-61 10l-27 -2v-373z" />
<glyph unicode="C" horiz-adv-x="1230" d="M0 1133v34l2 41q12 139 121 222q93 71 206 71h3q145 0 257.5 -75.5t149.5 -75.5q39 0 58.5 20.5t19.5 67.5q-1 38 17 58q14 16 34 16q5 0 11 -1q20 -6 20 -41q0 -31 -20 -45q-6 -12 -11 -20q-20 -39 -28 -59q-14 -37 -39 -52q-57 -47 -193 -47q-53 0 -159 10 q-176 0 -262.5 -36.5t-86.5 -126.5l6 -70q2 -29 37 -46t58 -22l-8 -6q-4 -2 -33 -6l-43 6l-49 27q-35 25 -54 59q-14 43 -14 97zM174 565q0 152 49 273q35 88 111 176q23 25 53.5 51.5t65.5 50.5q70 51 159.5 80t214.5 47q53 6 78 51l35 58l53 82l11 14l34 -18 q16 -8 37 -12.5t33 -6.5l72 6l37 10q-6 -18 -12.5 -39.5t-20.5 -48.5q-47 -92 -117 -131l-37 -16l-35 -4l-32 2l-78 6h-21l-20 -6v-946l74 -13l75 -6q74 0 160 25l37 12l-117 -125q-8 -8 -25.5 -32.5t-33.5 -47.5l-27 -41l-57 -8q-66 -8 -95.5 -9t-48.5 -1q-57 0 -111 6 t-107.5 18.5t-98.5 35t-82 59.5q-96 96 -129 145q-84 131 -84 303zM362 745q0 -86 15 -122l37 -97q27 -55 69 -63l4 57l13 193v32q0 102 -11 160q-6 57 -26 84l22 6q49 16 64.5 24.5t48.5 31.5q51 33 92 75l33 39l-25 2q-57 0 -110 -26q-84 -39 -164 -144q-27 -33 -47 -108 q-6 -37 -10.5 -71t-4.5 -73zM485 414l43 -37q117 -92 295 -129v936q-41 -16 -67.5 -47t-31.5 -57.5t-7 -50t-2 -73.5l-4 -118l8 -193l4 -63l-39 -19l-90 -57q-37 -25 -78 -64z" />
<glyph unicode="D" horiz-adv-x="1339" d="M0 66l2 20q8 100 86 186t197 86l34 -2q125 -12 218 -37q16 -4 35.5 -9t39.5 -13l13 14q10 20 10 43q0 18 -6 32.5t-12.5 24t-18.5 19.5q-20 20 -36.5 32.5t-35.5 22.5q-33 16 -53 17l-18 -4l-37 -9l-47 -4h-21l-10 2l-10 13q-8 12 -13 43l5 30q2 18 26 58l23 24l-58 -14 q-55 -29 -55 -84q0 -51 31 -104l30 -41q-55 18 -88 37q-90 53 -90 147q0 131 99 211q18 12 40.5 23.5t59.5 23.5q4 35 10 51q45 123 203 207q35 18 90 51t76 47l67 60l-102 -19q-49 -6 -125 -12t-121 -6q-170 0 -254 -37q-84 -33 -84 -123q0 -78 35 -106q23 -20 72 -21 q29 0 59 12l23 15q-2 -14 -13 -25q-16 -23 -55 -22q-82 0 -143 47q-78 61 -78 178l2 35q12 137 119 217q90 70 205 70q63 0 204.5 -67t192.5 -67q27 0 45 22.5t33 92.5q16 59 55 59l16 -6q6 -2 11 -18l-9 -35l-16 -47l-37 -113l17 -2l14 -2l33 6q16 6 30 31l29 64l6 20 l35 -14q84 -39 168 -99q27 -16 45.5 -38.5t30.5 -51t12 -69.5v-15l6 -204l4 -258l-2 -281l-2 -113l-114 -8q-129 -18 -199 -61t-119 -127l-35 -72l-51 16l-221 70l-2 -6q-8 -37 -53 -74t-115 -72q-55 -28 -128 -28h-5q-82 0 -139 35q-66 41 -66 125zM145 18q0 -39 28 -55 t71 -16l49 6l43 10q53 23 98 64q10 10 25.5 27.5t27.5 35.5l-51 14l-28 2h-39q-66 0 -103 -4t-67 -18q-53 -23 -54 -66zM614 954q0 -59 27 -133q74 -188 78 -211l2 -35q0 -68 -19 -182l-20 -100q39 0 61 4l35 6v873q-61 0 -104 -37q-59 -55 -60 -185zM797 301q16 -2 47 -27 l69 -43q11 -5 22 -5q8 0 15 3l27 17l8 12l6 141l2 189h-196v-287zM797 608h196v105v20h-196v-125zM797 752h196v57v47v37v31v24q0 78 -8 103q-6 53 -41 92q-18 18 -59 28l-88 7v-426z" />
<glyph unicode="E" horiz-adv-x="1226" d="M0 1139v32l2 41q12 139 121 222q93 71 206 71h3q147 0 260 -76.5t147 -76.5q78 0 78 90q0 39 17.5 56.5t44.5 17.5q20 -6 20 -41q0 -31 -20 -45q-12 -8 -35 -64q-12 -29 -20.5 -43t-22.5 -27q-57 -45 -191 -45q-55 0 -161 11q-176 0 -262.5 -37t-86.5 -127l6 -70 q2 -29 37 -46t58 -21l-8 -7l-33 -6l-43 6q-12 4 -20.5 9.5t-28.5 19.5q-33 20 -54 57q-14 43 -14 99zM174 569q0 152 49 273q35 92 111 176q23 25 53.5 51.5t65.5 50.5q70 51 169 82t205 45q53 6 78 51l35 58l53 82l11 14l34 -18q39 -14 70 -19q33 0 72 8l37 9 q-16 -59 -33 -86q-47 -96 -117 -134l-37 -16l-35 -4l-32 2l-78 6h-21l-20 -4v-346l14 -23q10 -18 23.5 -23t74.5 -5h19q45 0 78.5 7t48.5 34v-37q0 -14 -13.5 -37t-37.5 -33q-25 -6 -74 -6l-72 -4q-31 -8 -37 -12l-24 -29v-434l63 -12q16 -4 39 -5t47 0q20 0 48 1t85 16 l64 18l-117 -125q-27 -31 -59 -80l-27 -41l-57 -8q-66 -8 -95.5 -9t-48.5 -1q-57 0 -111 6t-102 17q-119 31 -186 96q-94 90 -129 145q-84 131 -84 303zM362 750q0 -86 15 -123l37 -97q27 -55 69 -63l4 59l13 193v31q0 102 -11 159q-6 57 -26 84l22 6q27 10 56.5 24.5 t56.5 31.5q51 29 92 75l33 39l-25 2q-57 0 -110 -26q-82 -39 -164 -141q-27 -37 -47 -111q-6 -37 -10.5 -71t-4.5 -72zM485 418l43 -37q117 -92 295 -129v936q-37 -12 -69 -47q-25 -31 -30 -57.5t-7 -50t-2 -72.5l-4 -119l8 -193l4 -63l-39 -19l-90 -59q-12 -8 -38 -28.5 t-40 -33.5z" />
<glyph unicode="F" horiz-adv-x="1122" d="M2 49v23q8 104 87 188t200 84h33q57 -8 106 -14t109 -23q35 -6 75 -24l13 16q10 16 10 41q0 20 -8 37l-29 41q-14 14 -35.5 29.5t-36.5 23.5q-31 18 -53 18l-18 -4l-37 -10l-45 -2h-23l-8 2l-12 12q-10 20 -11 43l5 31q2 23 26 55l21 27q-37 -6 -56 -16q-55 -29 -55 -84 q0 -49 31 -105l31 -39q-20 6 -39 13q-33 12 -52 22q-90 53 -90 150q0 129 101 209q33 27 98 49q4 35 10 51q45 119 203 205q139 74 197 121l36 36l-102 -18q-66 -8 -122 -12t-124 -4q-168 0 -253 -37t-85 -123q0 -78 37 -109q27 -20 72 -20q27 0 57 12l23 12l-6 -12 q-20 -33 -70 -33q-66 0 -127 50q-84 63 -84 178v35q16 135 121 217q93 69 200 69h3q68 0 209 -66.5t190 -66.5q37 0 61 55l15 58q16 61 57 61l16 -6q8 -8 11 -20l-11 -35l-16 -47l-37 -111l27 2q29 2 65 25l48 47q39 39 73 39q16 -1 39 -13q25 -18 37 -37.5t12 -46.5 q0 -45 -61 -75q-37 -16 -96.5 -26.5t-135.5 -10.5l-18 -2v-391l12 -23q10 -16 25.5 -22.5t73.5 -6.5l79 4q47 8 64 35l-2 -32q0 -18 -14.5 -40t-36.5 -32l-72 -4q-45 0 -70.5 -5t-33.5 -12l-15 -14l-10 -14v-283l4 -47q0 -41 -16.5 -79t-65.5 -73q-41 -29 -78 -90l-22 -53 l-35 16l-94 39q-10 -31 -55.5 -67.5t-107.5 -66t-136 -29.5q-86 0 -139 32q-63 39 -64 123zM147 6q0 -41 28 -56.5t71 -15.5q31 0 49 7q29 4 41 10q45 14 92 55q16 14 29 27q4 4 24 33l-37 12l-32 8l-47 8l-54 4q-66 0 -115 -20.5t-49 -71.5zM625 944q0 -70 77 -199 q37 -66 37 -114l2 -72l2 -51q0 -76 -10 -115q-12 -66 -51 -114l20 -5q23 0 37.5 11.5t26 26.5t27.5 42v828q-63 -14 -111 -66q-57 -70 -57 -172z" />
<glyph unicode="G" horiz-adv-x="1402" d="M2 1139l6 71q0 137 111 222q93 69 210 69h3q141 0 255.5 -75.5t147.5 -75.5q39 0 58.5 20.5t19.5 67.5q0 39 18 57q12 17 34 17q4 0 9 -1q18 -6 19 -41q0 -29 -14.5 -40t-26.5 -37q-27 -70 -39 -84q4 -14 12 -21l31 -8q25 0 35 10t22 56l13 59l4 33l53 -19q55 -16 98 -16 q29 0 52 4q33 10 51 14l33 9q0 -33 -7 -44q-10 -49 -51 -108t-86 -82q-18 -8 -61 -16h-49l-54 2h-47t-45 -8v-328q37 10 65.5 24.5t51 33t37 32.5t35.5 41l24 41l49 -10q111 -37 168 -113q27 -41 38 -91.5t11 -105.5q0 -66 -50 -169t-99 -152q-14 -16 -55 -50t-102.5 -80 t-106.5 -90t-62 -108q-4 -10 -4 -49l-172 33q-178 41 -258 96q-125 88 -156 135q-71 105 -71 314v6q0 150 49 264q35 88 113 166q39 39 133 108q63 47 153 72l162 27q8 6 12 26l-2 21v14q-59 -33 -172 -33h-92q-45 6 -67 8q-90 0 -154 -8t-107 -28q-84 -35 -84 -123 q0 -51 6.5 -69.5t11.5 -25t32 -24.5l41 -18h8l-8 -7l-31 -6l-43 6l-53 31q-35 23 -46.5 49.5t-15.5 47t-4 57.5zM362 715l3 -68l6 -49q18 -78 47 -113q20 -31 51 -32l4 161l2 109l2 27v30l-2 109v39v41q-4 18 -4 24l61 25q72 35 93 59q39 41 77 72l31 20h-26q-59 0 -115 -26 q-86 -35 -168 -139q-29 -37 -47 -123q-6 -41 -10.5 -81t-4.5 -85zM481 406q20 -18 42 -35t50 -39q115 -76 224 -90v915l-54 -35q-16 -16 -24 -47l-6 -114l-4 -119l4 -150l6 -102l-37 -19q-31 -18 -50.5 -29.5t-40 -26.5t-26.5 -21q-27 -23 -53 -52zM817 240h27q47 0 78.5 8 t48 19.5t22.5 35.5l4 92v17l-2 65v76v25v24q0 84 -8 119q-18 86 -69 86q-43 0 -60 -12q-29 -23 -41 -113v-442z" />
<glyph unicode="H" horiz-adv-x="1349" d="M-2 45v23q8 102 84 184q84 92 205 92l32 -2q123 -12 220 -37l75 -22l13 14q12 18 12 43q0 10 -10.5 33.5t-27.5 41t-38.5 33t-36.5 23.5q-31 18 -53 18l-18 -4l-37 -10l-47 -2h-21l-10 2l-10 12q-8 12 -13 43l5 31q2 23 26 57l23 27q-31 -4 -58 -16q-57 -29 -57 -84 t33 -107q6 -14 30 -39q-63 18 -90 35q-92 53 -92 150q0 133 101 213q29 20 102 49q8 41 19.5 69.5t31.5 57.5q59 74 160 129q57 31 97 55.5t77 50t66 56.5l-105 -17q-57 -8 -125.5 -14t-122.5 -6q-176 0 -259 -36t-83 -126q0 -78 37 -109q25 -20 74 -20q29 0 57 12l25 15 l-6 -15q-23 -33 -72 -33q-66 0 -131 52q-82 63 -82 178v35q16 143 121 221q91 69 204 69h3q70 0 211 -67.5t190 -67.5q35 0 55 39q6 12 11.5 29.5t14.5 62.5t52 45l17 -6q6 -4 10 -20l-8 -35l-17 -47l-35 -113l25 2q31 2 68 25l45 33l26 22q-10 -33 -39.5 -64.5t-57.5 -52 t-73 -45.5v-354l8 2q90 41 144 109q18 23 37 61l65 -18q72 -25 109 -66t57 -110q23 -62 23 -142q0 -61 -43 -170l-47 -110l-44 -146q-18 -80 -18 -133q0 -61 10.5 -84.5t34.5 -38.5l92 -37l-49 7l-61 6l-37 -4l-45 -7l-19 29l-34 47l-48 58l-26 32l39 342l2 6h-150v-124v-46 q-12 -104 -76 -159q-55 -43 -94 -127l-16 -35l-19 10l-110 47q-14 -37 -57 -70.5t-109 -70.5q-63 -27 -135 -27q-84 0 -142 35q-66 41 -65 123zM143 2q0 -39 25 -57q27 -14 74 -15l51 4l43 11q45 16 92 57q16 14 29 27q4 3 24 32l-69 23l-47 6l-54 6q-74 0 -121 -22.5 t-47 -71.5zM625 948q0 -66 45 -145l43 -72l35 55q12 18 23.5 30t29.5 26v358l-13 -6q-94 -47 -112 -66q-51 -55 -51 -180zM686 276l25 -2q29 0 49 13q21 8 41 45v454l-17 -18q-16 -16 -28 -43l-19 -55l4 -39l2 -58l5 -69q0 -41 -2.5 -61.5t-8.5 -53.5q-12 -61 -51 -113z M821 506h152l4 106h-156v-106zM821 633h156q0 158 -49 164l-68 8q-20 0 -39 -8v-164z" />
<glyph unicode="I" horiz-adv-x="940" d="M2 51l2 23q12 106 84 184q84 92 203 92l33 -2q133 -12 221 -39q12 -2 33.5 -8t42.5 -14l10 16q8 12 12 41q0 20 -7 37.5t-27.5 38t-41 35t-37.5 22.5q-31 18 -51 19q-12 -2 -16 -4.5t-41 -12.5l-47 -2h-21l-10 2l-4 6q-16 23 -16 52l2 30q6 23 28 56l23 28l-58 -18 q-57 -29 -57 -86q0 -51 31 -105l31 -41q-20 6 -44 14.5t-44 20.5q-90 49 -91 137v15q0 135 99 213q27 23 100 47q14 78 53 129q27 37 67 70.5t94 61.5t92 51.5t77 49.5q16 10 32.5 24.5t35.5 33.5l-103 -17q-57 -8 -125.5 -14t-120.5 -6l-49 2l-28 2q-266 0 -267 -164 q0 -74 37 -108q27 -20 72 -21q29 0 59 12l25 13l-6 -15q-22 -32 -69 -32h-3q-63 0 -131 49q-84 66 -84 180l2 35q12 139 119 221q94 70 207 70q72 0 212 -68t191 -68q25 0 41 23q6 8 16.5 32.5t18.5 55.5q18 66 57 66l19 -7q8 -8 10 -20l-10 -35l-17 -47l-37 -113l27 2 q31 2 66 25l45 33l28 22q-14 -39 -41 -67q-43 -45 -122 -90v-605v-22v-215l2 -39q0 -47 -15 -82q-14 -51 -67 -92q-45 -33 -86 -103l-27 -59l-35 16l-96 41q-10 -23 -22.5 -37t-38.5 -34q-45 -39 -104.5 -66.5t-137.5 -27.5q-84 0 -139 34q-66 41 -66 123zM150 6 q0 -41 28.5 -56.5t73.5 -15.5q35 0 51 5l37 10q49 16 92 57q37 33 53 62l-67 18l-49 8l-54 4q-68 0 -116.5 -20.5t-48.5 -71.5zM631 954q0 -59 31 -120l57 -97h94v471l-20 -10q-86 -43 -113 -65q-49 -55 -49 -179zM690 283l21 -4q23 0 50 15t52 54v244h-61v-35v-25 q0 -66 -3.5 -94t-13.5 -61q-12 -53 -45 -94zM729 717l14 -45q6 -12 7 -37v-21h63v103h-84z" />
<glyph unicode="J" horiz-adv-x="933" d="M2 31q0 115 92 217t219 102l33 -2q143 -14 254 -49l43 -14l6 16l4 27q0 25 -9 46t-39 51t-66 50q-6 4 -26.5 9t-27.5 5l-10 -2l-10 -2q-18 -8 -43 -12l-45 -4h-23l-8 2l-10 14q-12 20 -12 39q0 18 4 25q0 31 20 65l17 25q-12 -2 -29 -5t-29 -11q-57 -27 -57 -82 q0 -57 29 -107l30 -39q-61 14 -90 33q-92 47 -92 135l2 19q8 90 117 182q8 6 30 22q33 23 76 50v30q0 16 2 23q25 125 185 215q154 80 245 143l33 25l-104 -21q-51 -6 -124 -12t-122 -6q-344 0 -344 -162q0 -78 37 -108q27 -20 71 -21q31 0 60 14l22 13l-4 -15 q-19 -32 -68 -32h-3q-66 0 -132 51q-84 66 -83 178l2 35q12 139 122 221q90 68 205 68q41 0 88 -15.5t123 -52.5q147 -68 191 -68q33 0 55 41l25 74q12 63 55 64l16 -7q10 -4 10 -20l-8 -33l-18 -47l-37 -117l16 -4l29 4l25 15l43 26l-7 -12q-18 -27 -102 -94v-615v-22v-221 l4 -39q0 -31 -3 -44.5t-13 -35.5q-23 -53 -67 -86t-87 -105l-28 -59l-60 29q-33 14 -75 29.5t-89 27.5l-51 10l-61 4q-76 0 -121 -26q-55 -37 -55 -121q0 -66 49 -96q37 -20 90 -21l30 2q33 0 113 43l31 17l-29 -37q-37 -41 -94 -60l-61 -8q-98 0 -183 55q-94 63 -94 181z M651 954q0 -70 47 -145l41 -72h99v475l-23 -12l-110 -72q-53 -49 -54 -174zM713 283l18 -4q25 0 52.5 15t54.5 56v242h-64v-35v-25q0 -102 -15.5 -156t-45.5 -93zM752 719l18 -80l2 -25h66v105h-86z" />
<glyph unicode="K" horiz-adv-x="1390" d="M4 51l2 23q10 106 84 184q84 92 203 92l33 -2q133 -12 221 -39q12 -2 32.5 -8t41.5 -14l12 16q8 12 12 41q0 16 -8 35.5t-31 42.5q-41 41 -70.5 55.5t-56.5 18.5q-12 -2 -17 -5.5t-50 -11.5l-35 -2h-23l-8 2l-6 6q-12 18 -16 52l2 20q6 31 28 66l23 28l-58 -18 q-57 -29 -57 -86q0 -55 31 -105q2 -2 9 -13t24 -28q-61 18 -90 37q-90 55 -91 150q0 137 101 213q27 20 98 47l10 51q45 123 207 211q106 55 168 100q18 12 37.5 29.5t30.5 28.5l-105 -17q-57 -8 -125.5 -14t-120.5 -6l-38 2l-37 2q-268 0 -269 -164q0 -78 37 -108 q27 -20 74 -21q29 0 59 12l23 13q-10 -23 -23 -31q-23 -16 -55 -16q-63 0 -129 49q-84 66 -84 180l2 35q12 139 119 221q92 70 205 70q72 0 213 -68t190 -68q27 0 45 25q12 16 30.5 84t59.5 68l17 -7q10 -6 10 -18t-12 -47l-15 -37l-37 -113l29 2q33 2 64 25l47 33l26 22 q-6 -14 -18 -34.5t-23 -32.5q-27 -27 -53 -47.5t-67 -40.5v-455l63 4q23 0 45.5 12.5t51 57.5t36.5 98l12 117l11 186q8 84 59 132t137 61h33l-18 -11l-35 -37q-14 -23 -14 -55l2 -33l2 -41l26 -133l15 -104q0 -59 -27 -113q-10 -23 -61 -80q-31 -31 -87 -59l-53 -23 q43 0 68 -6q68 -14 108 -61q29 -33 36 -69t9 -55t2 -62v-72l-2 -76v-27q0 -14 -4 -43q0 -29 4.5 -45t12.5 -24l30 -17l15 -6l-39 -30l-72 -64q-25 -25 -49 -68l-20 -38l-37 14q-41 18 -58 41l-37 69l-8 21l4 135l7 109q0 92 -9 155q0 63 -24 103q-16 29 -41 43l-21 2h-73 v-303l2 -41q0 -45 -17 -78q-23 -51 -65.5 -85t-85.5 -106l-29 -59l-20 10l-111 47q-14 -37 -54 -71.5t-112 -67.5q-55 -26 -129 -26h-6q-86 0 -139 34q-66 41 -66 123zM152 6q0 -41 23.5 -53t38.5 -15.5t38 -3.5q37 0 51 5l37 10q45 16 92 57q32 27 55 60l-69 20l-49 8 l-52 4q-68 0 -116.5 -20.5t-48.5 -71.5zM631 954q0 -59 31 -120l57 -97h98v473l-24 -12q-90 -45 -111 -65q-51 -53 -51 -179zM692 283l21 -4q23 0 50 15t54 56v242h-63v-35v-25q0 -66 -3 -94t-11.5 -59t-16.5 -48.5t-31 -47.5zM729 717l14 -35q6 -18 7 -47l2 -21h65v103h-88 z" />
<glyph unicode="L" horiz-adv-x="1265" d="M2 63v23q12 109 86 188q84 92 207 93l35 -2q154 -16 256 -48l45 -14l10 16q12 18 12 41t-8 39q-4 16 -31 41q-47 49 -86 63.5t-59 8.5l-41 -12l-43 -2h-25l-10 2l-6 8q-12 20 -16 53l2 17q6 37 28 67l23 29l-57 -19q-57 -27 -58 -88q0 -55 31 -104q2 -2 9 -13.5t24 -27.5 q-61 16 -92 37q-92 55 -93 153q0 137 101 213q33 25 102 49q18 82 55 132q61 80 164 133q78 43 95 53q41 25 77 51q18 12 33.5 24.5t36.5 37.5l-107 -21q-51 -6 -126.5 -12t-124.5 -6l-82 4q-127 0 -199 -43q-68 -49 -68 -125q0 -80 37 -111q23 -20 74 -20q29 0 59 12l27 14 q-8 -20 -24.5 -31.5t-55.5 -15.5q-66 0 -133 49q-84 68 -84 183v35q16 145 123 225q93 71 206 71h3q74 0 218 -76.5t191 -76.5q39 0 54.5 22.5t15.5 61.5q0 37 15.5 53t39.5 21l21 -7q10 -4 10 -18l-12 -39l-13 -27q-8 -14 -22 -61l-6 -37l28 2q18 4 35 9.5t31 15.5 q16 16 37.5 33.5t36.5 27.5q29 23 53 23q14 0 20 -6q18 -16 19 -41q0 -39 -65.5 -83t-209.5 -75v-967l138 -22q76 -10 127 -10q66 0 105 11t59 46q-14 -45 -31 -68.5t-42.5 -49t-53.5 -48.5q-43 -31 -66 -86l-8 -43h-37q-47 0 -88 9t-103 32v-270h-18v278l-41 19 q-31 10 -43 20l-78 31l-84 24l-4 -4l-8 -12q-12 -41 -74.5 -105.5t-128 -88t-143.5 -23.5q-90 0 -143 33q-63 39 -64 122zM150 18q0 -41 30.5 -58t73.5 -17l49 6l41 8q27 10 49.5 24.5t50.5 41.5q20 18 47 51.5t50 68.5q-20 4 -64 4h-18q-123 0 -216 -39.5t-93 -89.5z M641 983q0 -49 14 -90l68 -119h90v457q-92 -14 -125 -57q-47 -53 -47 -191zM702 299l29 -8l82 -19v314l-16 14q-6 6 -33 12v-73q0 -102 -16 -150q-6 -27 -15.5 -45t-30.5 -45zM743 737l11 -35q4 -10 8 -43v-8h51v62l-16 12q-12 8 -27 8z" />
<glyph unicode="M" horiz-adv-x="1845" d="M-2 49l2 23q10 109 82 186q84 92 207 92l30 -2q129 -12 222 -39q12 -2 32.5 -8t40.5 -14l13 16q8 12 12 41q0 12 -8 37l-31 39q-37 39 -74 59q-27 12 -53 17l-18 -7q-16 -4 -35 -8l-43 -2h-25h-10l-12 15q-10 20 -11 45l3 30q2 14 28 54l21 28l-56 -18q-57 -27 -57 -86 q0 -51 31 -105l30 -41q-55 18 -88 37q-92 55 -92 150q0 135 101 211q31 25 100 49q4 35 10 51q45 123 207 209q59 31 88 49.5t78 52.5q16 10 32.5 24.5t35.5 33.5l-78 -19q-104 -18 -197 -18h-27h-24l-25 2q-174 0 -258 -37q-82 -33 -82 -125q0 -80 35 -108q25 -20 72 -21 q29 0 59 12l23 13l-6 -15q-22 -32 -69 -32h-3q-63 0 -129 49q-84 66 -84 180l2 35q12 137 121 221q92 70 203 70q72 0 213 -68t192 -68q33 0 53 39q2 2 10.5 31t14.5 49q16 57 55 58l17 -7q10 -6 10 -18q0 -16 -10 -37l-17 -47l-35 -113l15 -4l18 -2q23 0 33 4l33 15 q10 6 23.5 19t33.5 40q10 8 37 45l31 -25q27 -20 55 -45q16 -14 45 -38q8 -8 28.5 -22.5t41.5 -29.5l45 -24v-41l43 37l53 43q61 45 104 110l15 25l108 -98l72 -52l45 -24l-4 -275l-2 -233v-322q0 -162 8 -186q10 -18 31 -35l18 -12l-33 -21l-71 -53q-16 -12 -37 -36.5 t-37 -47.5l-12 -24l-19 10q-41 25 -73 80q-8 14 -17.5 39.5t-17.5 54.5l-8 43l2 199v182h-172v-244q0 -121 7 -137t29 -33l21 -12l-33 -21l-74 -55q-31 -20 -61 -68l-25 -38l-30 20q-18 14 -30.5 28.5t-31.5 43.5q-10 18 -18 40.5t-15 51.5l-8 43l2 381h-164v-242v-33v-14 q0 -18 -5 -30.5t-17 -37.5q-20 -39 -64.5 -71.5t-80.5 -100.5l-29 -59l-35 16l-94 41q-14 -35 -57 -71.5t-104.5 -66.5t-141.5 -30q-82 0 -140 35q-66 41 -65 123zM145 6q0 -41 29 -56.5t72 -15.5q37 0 53 5l37 10q49 16 92 57q28 23 53 60l-69 20l-47 8l-54 4 q-68 0 -117 -20.5t-49 -71.5zM651 950q0 -31 6.5 -62.5t22.5 -66.5q63 -135 63 -184l2 -68q0 -37 5 -53q0 -41 -2.5 -63.5t-8.5 -55.5q-16 -66 -53 -114l23 -4q27 0 53 15t55 66v826q-70 -12 -118 -72.5t-48 -163.5zM831 608h164l2 70l2 33h-168v-103zM831 733h168l-2 182 l-2 156l-4 62q-4 16 -12 22q-6 12 -27 21l-32 12l-72 2l-17 -2v-455zM1262 608h172l2 70l2 33h-176v-103zM1262 733h176l-2 182l-4 156l-2 55l-13 33q-8 12 -26 23l-35 8q-20 0 -38 -7t-30 -24l-24 -16l-2 -207v-203z" />
<glyph unicode="N" horiz-adv-x="1449" d="M0 47l2 23q10 106 84 186q82 88 203 88h33q70 -8 123 -17.5t96 -21.5l73 -22l13 16q12 18 12 41q0 12 -8 37l-31 39q-41 41 -69.5 57t-55.5 16l-20 -4l-33 -8l-45 -2h-27h-10l-10 14q-2 4 -5 16.5t-6 24.5l3 23q4 20 9 32.5t19 32.5l21 27q-27 -4 -39.5 -9t-16.5 -7 q-55 -31 -55 -86q0 -51 31 -105l31 -41q-61 18 -91 37q-90 55 -90 150q0 131 101 211q33 27 98 49q18 78 53 129q53 72 164 131q143 80 197 123l37 35l-78 -17q-102 -18 -197 -18h-27h-24l-25 2q-174 0 -258 -39q-84 -35 -84 -125q0 -78 37 -109q27 -18 74 -18q33 0 53.5 9 t28.5 16l-6 -15q-23 -33 -72 -33q-63 0 -129 50q-84 66 -84 180l2 35q12 139 119 219q91 69 202 69h3q68 0 210 -66.5t193 -66.5q35 0 53 39q10 16 25.5 76.5t54.5 60.5l17 -6q10 -6 10 -20q0 -16 -8 -35l-17 -47l-37 -115l17 -2l18 -2q23 0 33 4l31 15q8 6 24.5 21t42.5 46 l47 55l27 -22q74 -53 98 -78l82 -49l60 -27l-2 -260l-2 -280v-322q0 -172 7 -188.5t29 -32.5l23 -12l-33 -21l-72 -53q-31 -25 -63 -70l-25 -39l-18 11q-45 33 -70.5 77.5t-38.5 98.5l-8 41v225l2 190h-205v-256l3 -34l-3 -25q0 -18 -5 -33.5t-15 -36.5q-20 -37 -65.5 -70.5 t-81.5 -101.5l-29 -59l-33 16l-96 41q-16 -37 -59.5 -72.5t-104.5 -64.5t-137 -29q-86 0 -139 35q-66 41 -66 123zM145 2q0 -41 28 -56.5t73 -15.5q35 0 51 4q18 0 39 11q23 6 47.5 21.5t47.5 36.5t50 60l-67 19l-49 8l-52 4q-70 0 -119 -20.5t-49 -71.5zM651 946 q0 -31 6.5 -62.5t22.5 -66.5q63 -139 63 -184l2 -72l5 -53q0 -66 -11 -117q-16 -63 -53 -115l23 -2q29 0 51 15q32 16 57 67v826q-68 -12 -117 -73.5t-49 -162.5zM831 633h205l2 35l2 71h-209v-106zM831 758h209l-2 213l-4 112q0 31 -4 39q0 14 -7 23.5t-38 21.5l-47 13 l-45 2l-45 2h-17v-426z" />
<glyph unicode="O" horiz-adv-x="1462" d="M0 1139v30l2 41q12 139 119 222q93 69 206 69h3q139 0 254.5 -75.5t148.5 -75.5q76 0 76 88q-1 34 19 56q16 17 35 18q4 0 9 -1q16 -6 17 -41q0 -29 -17.5 -44t-29.5 -54q-16 -41 -33 -63l12 -21l31 -8q27 0 37 10t20 51l19 97l76 -41q86 -51 139 -94q106 -84 145 -142 q84 -118 84 -282q0 -170 -67 -312q-55 -111 -156 -205q-29 -29 -61.5 -54t-79.5 -54q-33 -20 -70 -49t-53 -45q-51 -49 -68 -111l-4 -49l-170 33q-182 43 -258 96q-125 88 -156 135q-71 105 -71 314v6q0 147 47 264q20 47 48 87t68.5 81t129.5 106q68 47 153 72l164 27 q6 6 10 26v21l-2 14q-55 -33 -170 -33q-74 0 -162 8q-90 0 -153.5 -8t-106.5 -28q-84 -35 -84 -123q0 -45 9.5 -72t42.5 -47q25 -14 45 -18l-7 -7l-30 -6l-41 6q-14 4 -50 28t-55 60q-14 39 -14 97zM360 754q0 -86 15 -123l37 -94q25 -53 67 -64l8 94l9 154q0 166 -17 237 q-6 23 -20 37l39 11q27 10 32 12q27 12 62 35q47 29 90 75l35 41h-25q-55 0 -110 -26q-84 -37 -164 -139q-31 -39 -44.5 -107t-13.5 -143zM483 424q51 -59 90 -90q111 -92 220 -92l-2 915l-43 -33q-25 -14 -30 -41.5t-7 -50t-2 -71.5v-56q0 -35 -4 -51l-3 -51l7 -137l8 -76 l-23 -10q-53 -25 -106 -64l-88 -76zM813 240h27q123 0 225 96q61 61 111 153q10 20 16 34t11 33t7 29.5t2 35.5h-399v-381zM813 639h404v29l2 22v25l-2 26h-404v-102zM813 764h399q-10 80 -39.5 143.5t-89.5 122.5q-37 31 -71 64q-25 20 -62 45q-63 45 -106 45q-16 0 -31 -8 v-412z" />
<glyph unicode="P" horiz-adv-x="1382" d="M-2 51v23q8 102 84 184q84 92 203 92l34 -2q131 -12 218 -39q16 -2 35.5 -8t41.5 -14l11 16q8 12 12 41q0 20 -10.5 41t-28.5 37q-35 37 -72 57q-25 12 -55 17q-12 -2 -16 -5.5t-21.5 -6.5t-30.5 -5l-34 -2h-21l-8 2l-6 6q-12 18 -17 52l2 20q6 35 27 66l23 28l-56 -18 q-57 -27 -57 -86q0 -55 31 -105q2 -2 9 -13t23 -28q-57 16 -90 37q-92 55 -92 150q0 137 101 213q27 23 100 47q4 35 10 51q41 121 205 211q106 55 168 100q16 10 32.5 24.5t34.5 33.5l-102 -17q-57 -8 -125.5 -14t-122.5 -6l-37 2l-39 2q-266 0 -266 -164q0 -80 37 -108 q25 -20 72 -21q29 0 59 12l25 13l-15 -21q-18 -18 -47 -24l-39 -2q-76 0 -129 53q-61 61 -61 170v41q16 141 119 221q94 70 207 70q68 0 211 -68t192 -68q27 0 41 20.5t37 94.5q16 61 55 62l19 -7q8 -4 10 -18q0 -16 -15 -47l-14 -37l-35 -113h39q20 2 46 21.5t28 21.5 q18 16 35 49l20 41q31 -8 37 -12q92 -33 150 -100q59 -59 92 -181.5t33 -224.5q0 -244 -166 -352q-51 -31 -118 -49.5t-136 -18.5l-39 3v-158l4 -39q0 -37 -20.5 -78t-70.5 -77t-89 -87l-37 -51l-19 10l-110 47q-14 -39 -58 -71q-39 -35 -110 -68q-55 -26 -129 -26h-6 q-84 0 -143.5 36.5t-59.5 120.5zM143 6q0 -41 28 -56.5t73 -15.5q35 0 51 5l39 10q47 18 92 57q10 8 26.5 27t26.5 33l-69 20l-50 8l-51 4q-70 0 -118 -20.5t-48 -71.5zM623 954q0 -76 60 -168t60 -151v-70l5 -49q0 -70 -13.5 -127t-50.5 -106l21 -4q41 0 70.5 24.5 t49.5 69.5v835q-29 -4 -39 -10q-90 -43 -120 -86q-43 -61 -43 -158zM846 522q102 0 143 49q18 29 24.5 47.5t10.5 35.5t8 46h-186v-178zM846 719h188l2 88v18h-190v-106zM846 842h190q0 141 -17.5 217t-45.5 104l-43 33q-20 14 -41 14h-43v-368z" />
<glyph unicode="Q" horiz-adv-x="1566" d="M0 1139v30l2 41q12 139 119 222q93 69 206 69h3q139 0 254.5 -75.5t148.5 -75.5q76 0 76 88q0 35 19 56q16 18 35 18q4 0 9 -1q16 -6 17 -41q0 -29 -17.5 -44t-29.5 -54q-16 -41 -33 -63l12 -21l31 -8q27 0 37 10t20 51l19 97l76 -41q86 -51 139 -94q106 -84 145 -142 q84 -119 84 -282q0 -131 -30.5 -228.5t-90.5 -179.5l29 -45l66 -109q41 -74 81 -104q19 -16 52 -16l-41 -39l-86 -60q-37 -20 -60 -59l-18 -39q-43 29 -64 53q-37 39 -65.5 82t-52.5 105l-11 24l-14 29l-182 -133q-51 -49 -68 -111l-4 -49l-170 33q-182 43 -258 96 q-125 88 -156 135q-71 105 -71 314v6q0 147 47 264q20 47 48 87t68.5 81t129.5 106q68 47 153 72l164 27q6 6 10 26v21l-2 14q-55 -33 -170 -33q-74 0 -162 8q-90 0 -153.5 -8t-106.5 -28q-84 -35 -84 -123q0 -45 9.5 -72t42.5 -47q25 -14 45 -18l-7 -7l-30 -6l-41 6 q-14 4 -50 28t-55 60q-14 39 -14 97zM360 754q0 -86 15 -123l37 -94q25 -53 67 -64l8 94l9 154q0 166 -17 237q-6 23 -20 37l39 11q27 10 32 12q27 12 62 35q47 29 90 75l35 41h-25q-55 0 -110 -26q-84 -37 -164 -139q-31 -39 -44.5 -107t-13.5 -143zM483 424q51 -59 90 -90 q111 -92 220 -92l-2 915l-43 -33q-25 -14 -30 -41.5t-7 -50t-2 -71.5v-56q0 -35 -4 -51l-3 -51l7 -137l8 -76l-23 -10q-53 -25 -106 -64l-88 -76zM813 240h27q63 0 110 22q27 12 46.5 24.5t52.5 37.5q-35 51 -72 67q-37 20 -76 21q-18 0 -39.5 -9.5t-48.5 -29.5v-133z M813 485l59 27q14 6 37 20.5t39 26.5l41 21l49 6q37 0 80 -13l43 -16l35 -20l12 41l4 43h-399v-136zM813 639h404v29l2 22v25l-2 26h-404v-102zM813 764h399q-10 80 -39.5 143.5t-89.5 122.5q-37 31 -71 64q-25 20 -62 45q-63 45 -106 45q-16 0 -31 -8v-412z" />
<glyph unicode="R" horiz-adv-x="1417" d="M-2 47l2 23q10 104 84 184q84 90 203 90h32q72 -8 126.5 -17.5t95.5 -21.5l73 -22l13 16q12 18 12 41q0 12 -8 37l-31 41q-23 23 -37 33q-20 16 -35 24q-29 14 -53 14h-10l-6 -4l-41 -10l-47 -2h-21l-10 2l-6 6q-14 20 -15 51l3 31q2 16 28 55l21 27q-27 -4 -39.5 -9 t-16.5 -7q-57 -31 -57 -86q0 -51 31 -105l30 -41q-55 18 -88 37q-92 55 -92 150q0 133 101 213q18 12 40.5 23t59.5 24q4 35 10 51q45 123 205 211q102 53 168 100q39 27 68 58l-105 -17q-57 -8 -125.5 -14t-120.5 -6l-39 2l-36 2q-266 0 -267 -166q0 -76 37 -107 q27 -20 72 -20q10 0 24.5 1t34.5 11l23 13q-10 -23 -25.5 -33t-50.5 -15q-63 0 -131 50q-84 66 -84 180l2 35q12 139 119 221q91 69 204 69h3q70 0 211 -67.5t192 -67.5q31 0 53 41q8 25 13.5 42.5t11.5 35.5q16 57 55 57l17 -6q10 -6 10 -20l-12 -45l-15 -37l-35 -115l39 2 q27 4 54.5 25.5t54.5 66.5l20 41l64 -24q76 -35 129 -93.5t72 -129.5q6 -27 10 -64t4 -88q0 -141 -111 -227q-12 -8 -49 -28.5t-63 -33.5l61 -6q66 -8 105 -43q41 -31 51 -107.5t10 -201.5q0 -115 20 -164q11 -31 48 -43l-41 -27q-43 -31 -66 -57l-55 -68q-4 -12 -31 -41 l-35 25q-43 29 -57 50.5t-24.5 41t-18.5 41.5l-4 35v428v10q-6 23 -31 39q-6 4 -17.5 8t-17.5 7l-49 6q-25 0 -47 -17l-4 -6v-309l4 -21v-22q0 -45 -14 -76q-20 -39 -72 -78q-23 -16 -46.5 -37.5t-47.5 -52.5l-37 -51l-19 10l-110 47q-31 -76 -168 -139q-57 -27 -135 -27 q-86 0 -140 35q-66 41 -65 123zM145 2q0 -41 28 -56.5t73 -15.5q37 0 53 4l35 11q27 10 44 20t50 37q18 16 37 33q12 18 16 26l-69 21l-47 8l-54 4q-68 0 -117 -20.5t-49 -71.5zM625 950q0 -63 37 -131q82 -143 81 -188l2 -70l5 -51q0 -29 -3.5 -58.5t-13.5 -75.5t-47 -100 l23 -2q29 0 55 15q34 21 63 76v839q-27 -4 -41 -10l-63 -33q-98 -68 -98 -211zM848 780l4 -10l12 -6q12 -10 14.5 -10h6.5q20 0 36.5 7t43 32.5t37 51t14.5 58.5t4 84q0 92 -21 133l-34 43q-33 43 -74 43h-43v-426z" />
<glyph unicode="S" horiz-adv-x="1454" d="M0 -2q0 43 14 92q29 90 95 135q41 29 118 56q20 6 48 11t49 7l127 4h60.5t59.5 -6l125 -21l70 -12l22 76l-22 16q-27 27 -35 41q-23 35 -24 52l-5 24h-22h-41h-25h-24h-23h-18h-19l-61 2q-37 0 -53 4q-98 16 -164 60q-92 55 -114.5 134t-22.5 158q0 72 19.5 147t55.5 144 q29 53 76 104.5t115 106.5q147 113 272 137l176 35q109 16 179 17q57 0 96 -9q20 0 29.5 -2t56.5 -20l-139 -461q47 0 65 -4q72 -12 119 -53q68 -63 99.5 -134t31.5 -149q0 -45 -6 -78q-18 -115 -74 -184l-117 -135l-112 -143q-53 -72 -66 -123l-28 -103l-17 -49l-61 29 l-131 49l-103 35l-16 4l-31 -37q-80 -82 -155 -131q-14 -10 -31 -15.5t-53 -13.5q-53 -8 -75 -9t-34 -1q-106 0 -145 27q-51 35 -82 77q-29 47 -29 109zM139 -98q0 -23 14.5 -39.5t33 -22.5t59.5 -6l49 2h45h18q86 0 160 78l55 82l-67 20q-90 23 -156 23h-24l-27 -4 q-74 0 -121 -45q-39 -43 -39 -88zM188 930q0 -100 72 -173t170 -73l25 -2h34h37q14 0 31.5 2t26.5 2q37 0 45 12l-4 80q-16 -8 -58 -8h-45q-23 6 -30 8q-33 8 -80 35q-27 16 -47.5 34.5t-36.5 47.5q-31 47 -31 96q0 33 14 60q25 45 73 78.5t97 33.5q25 0 37 -6 q53 -20 90 -82l23 -53l45 -6l47 -2l51 2l70 8h37q14 0 30.5 2t24.5 2l68 6l4 23q4 16 5 29.5t3 27.5q0 41 -12 72q-18 41 -53.5 60.5t-73 32.5t-78.5 26q-78 16 -150 16l-76 -4l-61 -12q-86 -29 -162 -91q-100 -84 -145 -198q-4 -10 -10.5 -32.5t-6.5 -35v-18.5zM432 1092 q0 -20 4 -31.5t16.5 -21t28.5 -11.5l37 -4l29 2l12 2l-4 33q-6 14 -31 39l-26 12l-29 4l-25 -4l-10 -2zM674 791l2 -89l31 7l100 10l72 -4l26 -4l27 94h-12l-29 -2l-84 4l-115 -2q-18 0 -18 -14zM745 471l5 -22l16 -27l37 -39l28 88h-86zM817 252l92 -21q35 -8 76 -8 q57 0 101 29t98 113q31 53 49 101t18 89q0 27 -8 49q-2 22 -20 51q-20 41 -50 71t-67 45t-98 24l-27 2l-29 -92l35 -13q84 -31 115 -74q10 -18 13 -28t9 -39t6 -72l-2 -43q0 -12 -10 -26l-55 -70q-20 -20 -43 -31l-47 -12l-53 -6q-37 0 -64 10l-22 10zM844 348l28 -10 q10 -2 30 -5t38 -5q35 0 64 18q10 8 18 23.5t8 33.5q0 31 -24 56l-23 12h-98z" />
<glyph unicode="T" horiz-adv-x="1273" d="M4 1217q12 143 121 225q89 69 208 69h3q174 0 336 -38q53 -12 100 -26.5t117 -41.5q37 -14 59.5 -21.5t69.5 -19.5q37 -6 58.5 -10t35.5 -4q47 0 68 22q14 12 14 35q0 16 -12 33l-13 12l31 -2q18 0 27 -10l12 -25l8 -37q0 -20 -4 -26q-6 -43 -36.5 -78t-110.5 -78 q-37 -18 -68 -18l-55 6l-74 6l-47 -6v-938l84 -15l68 -4q72 0 157 25l39 12l-117 -127q-31 -31 -61 -80l-25 -41l-57 -8q-74 -8 -143 -8q-57 0 -112.5 6t-102.5 17q-121 29 -191 94q-27 27 -63 67q-47 53 -66 80q-86 129 -86 305q0 217 100 375q63 92 183 184q31 20 79 44 t93 38q-23 0 -60 17q-84 35 -116 41q-350 0 -351 -166q0 -51 8.5 -76t39.5 -43l45 -20h8l-6 -5q-12 -6 -35 -6q-27 0 -41 4.5t-24.5 10.5t-28.5 20q-43 29 -53.5 70t-11.5 87t-1 73zM367 754q0 -86 14 -127l37 -97q27 -55 71 -63l5 59l12 193q0 135 -8.5 193.5t-28.5 84.5 l37 11q25 8 43 17t53 30q47 29 94 80l33 39l-27 4q-57 0 -108 -29q-88 -39 -166 -141q-33 -43 -47 -109q-6 -33 -10 -69.5t-4 -75.5zM492 418q16 -16 38.5 -33.5t40.5 -30.5q110 -71 260 -104v321h-131l-45 -24l-57 -37l-78 -66zM717 819l2 -47v-53h112v459q-39 -10 -71 -41 q-25 -25 -31 -62l-10 -92v-135zM721 698l8 -106h102v106h-110z" />
<glyph unicode="U" horiz-adv-x="1398" d="M-2 1174l2 36q12 137 119 222q91 69 204 69h3q141 0 256 -76q53 -35 91 -55t56 -20q78 0 78 88q-1 38 17 58q14 16 34 16q5 0 10 -1q18 -6 19 -41q0 -29 -17 -43l-24 -36l-15 -41v-111q18 2 30.5 5t43.5 18q59 23 110.5 61.5t82.5 81.5l20 35l23 -35q8 -10 25.5 -31.5 t29.5 -32.5l61 -63l17 -18l-4 -275l-2 -233v-197q0 -37 -2 -112.5t-2 -112.5l4 -125q10 -20 30 -37l21 -10l-35 -11q-16 -6 -36.5 -18t-37.5 -25q-25 -23 -34 -32t-27 -35l-23 -37l-34 27q-35 31 -64 75l-24 60l-7 53l-43 -27l-59 -45q-43 -31 -72 -92l-16 -49h-23 q-80 0 -129 10q-98 20 -166 70q-117 76 -174 156q-92 123 -92 286l2 29v29q18 203 121 344q72 102 180 170q72 41 95 45q-100 -111 -134 -205t-34 -219q0 -137 27.5 -211t121.5 -160q47 -41 100 -70q57 -23 109 -30v1071q-2 -10 -20 -23q-57 -45 -193 -45q-76 0 -158 8 q-176 0 -260 -37.5t-84 -123.5q0 -78 45 -111q28 -22 76 -22h4q33 0 72 20q16 4 35 21q-14 -25 -29 -35q-39 -35 -80 -35q-63 0 -133 53q-88 72 -88 187zM831 246q49 0 80 8t54 35l20 30l14 25l5 281h-173v-379zM831 641h173v70l2 37h-175v-107zM831 768h175l-2 184v70v47 q-4 27 -5 37l-2 57q0 10 -10 25.5t-27.5 24t-37.5 8.5l-48 -2q-25 0 -43 -11v-440z" />
<glyph unicode="V" horiz-adv-x="1359" d="M-4 1176l2 34q12 141 119 222q91 69 202 69h3q141 0 255.5 -75.5t147.5 -75.5q39 0 58.5 20.5t19.5 67.5q1 35 19 55q17 18 38 18h4q18 -6 19 -41q0 -29 -14.5 -40t-26.5 -39l-15 -39v-115q35 6 74 25q61 23 107 59q23 16 47 40.5t39 43.5l20 35l25 -35q29 -39 53 -66 l51 -49l25 -30l-6 -506v-43v-45v-41v-41v-35v-31v-29v-22v-21v-18v-59v-56q-27 0 -55.5 -4t-47.5 -8q-115 -23 -176 -63q-109 -70 -152 -162q-12 -23 -22 -76h-23q-41 0 -70.5 2t-58.5 10q-94 14 -168 68q-111 80 -170 156q-94 125 -94 284l2 33l2 27q18 203 119 346 q70 100 180 168q74 45 93 45q-100 -115 -132 -205q-34 -86 -34 -214v-7q0 -135 27.5 -209t121.5 -160q45 -39 96.5 -63.5t108.5 -34.5v1071l-23 -23q-55 -45 -192 -45h-70q-55 6 -86 8q-90 0 -153.5 -8t-106.5 -28q-84 -33 -84 -123q0 -80 43 -111q14 -10 35 -16t47 -6 q29 0 70 18l35 21l-27 -35q-39 -35 -82 -35q-63 0 -133 53q-86 72 -86 189zM827 244l31 -2q80 0 109 47q18 33 26 88l6 55l-2 172h-170v-360zM827 623h170l2 88v14h-172v-102zM827 745h172l-2 207l-2 148l-2 59l-12 33q-10 14 -27 22l-34 7l-52 -2q-25 0 -41 -13v-461z" />
<glyph unicode="W" horiz-adv-x="1869" d="M0 1176l2 34q12 139 119 222q93 69 204 69h3q141 0 255.5 -75.5t149.5 -75.5q78 0 78 88q1 38 17 58q13 16 33 16q5 0 11 -1q16 -6 17 -41q0 -27 -13.5 -39t-25.5 -38l-19 -43v-111q31 2 76 23q59 23 112.5 63.5t82.5 79.5l20 35l23 -35q12 -18 24.5 -32.5t30.5 -33.5 l51 -49l25 -30l-2 -242l-2 -266l-2 -179v-186l4 -135q6 -23 41 -23q33 0 71 23q25 12 41.5 23.5t32.5 27.5l4 221l2 187l-4 207q0 74 -2 126t-4 101l-4 88q-4 14 -11 24.5t-22.5 16.5t-25.5 20q27 0 55 15l57 34q20 8 51 56l25 41l23 -35l53 -62q16 -16 24 -22 q20 -18 41 -43l15 -18l-4 -275l-2 -233l-2 -197l-3 -225q0 -109 6.5 -128.5t26.5 -33.5l23 -10l-35 -11q-31 -14 -41 -19t-30.5 -23.5t-24.5 -20.5q-16 -14 -39 -47l-23 -37l-37 27q-41 37 -65.5 83t-24.5 78l-2 50l-43 -33l-41 -27l-82 -33q-53 -16 -84 -45 q-37 -29 -69 -77l-13 -23l-22 14q-45 39 -76 88l-20 54q-8 25 -9 59l-59 -37l-43 -35q-47 -35 -72 -92l-16 -49h-25q-33 0 -65.5 2t-61.5 8q-98 20 -170 70q-113 78 -170 154q-92 123 -92 284v37l4 25q0 96 33 184q27 76 86 160q68 100 178 170q72 41 95 45 q-96 -104 -134 -205q-18 -45 -26 -98.5t-8 -120.5q0 -137 27.5 -211t121.5 -160q41 -35 103 -67q53 -23 108 -33v1069l-22 -21q-55 -45 -193 -45h-90q-45 6 -68 8q-176 0 -259 -36.5t-83 -124.5q0 -76 43 -111q14 -10 35 -16t47 -6q27 0 68 20q12 2 37 21q-10 -16 -29 -35 q-39 -35 -80 -35q-63 0 -133 53q-88 70 -88 189zM831 246q57 0 86 9t50 34q6 8 20 30q8 14 14 25l3 281h-173v-379zM831 641h173l4 70v37h-177v-107zM831 768h177v197l-4 141l-7 59q0 12 -10 26.5t-26 22.5l-35 7l-49 -2q-25 0 -46 -11v-440z" />
<glyph unicode="X" horiz-adv-x="1511" d="M2 96q0 88 65.5 160t143.5 86l72 6l47 2q39 0 81 -3t95 -11l35 -6l155 362l-32 68h-80h-74q-172 0 -178 -31l6 31q16 66 43 98q18 18 57 25l158 4q-96 180 -178 291q-55 72 -96 104.5t-78 32.5q-18 0 -29 -6l43 26q33 20 45 29q20 14 37.5 28.5t37 34t36.5 43.5l28 46 q23 0 39 -7q53 -25 127 -114q51 -61 110.5 -153.5t123.5 -207.5l200 477l15 -10q41 -24 109 -24h5q23 0 42.5 1t66.5 7t68 14l4 -24l2 -19q0 -12 -3 -28.5t-5 -24.5q-8 -20 -37 -43l-68 -62q-34 -24 -93 -24h-5h-101l-41 4l-127 -305l19 -35l27 -51h172l61 2q18 2 35 14 l-14 -39l-41 -61q-20 -25 -52 -39q-23 -4 -39 -6t-55 -2q246 -481 287 -510q16 -12 44 -24.5t71 -28.5l32 -9l-24 -16q-27 -18 -46.5 -32.5t-29.5 -24.5l-74 -80l-53 -60q-25 16 -48.5 32.5t-33.5 27.5q-90 76 -125 129l-94 159q-16 -16 -33 -30q-27 -25 -29 -27l-71 -84 q-16 -23 -35.5 -56.5t-42.5 -82.5l-16 -39l-37 12l-66 23q-23 10 -57 14l-47 4l-17 -30q-20 -31 -61 -70l-59 -59q-27 -14 -127 -15q-102 0 -147.5 60.5t-45.5 156.5zM135 -2l2 -12q6 -31 31 -45q25 -18 61 -19q16 0 30.5 2t29.5 10q41 14 96 72l39 51l-55 19 q-63 20 -105 20l-37 -4q-20 -2 -56 -30.5t-36 -63.5zM594 317l37 -14q37 -14 98 -14q59 0 72 14l16 21q12 16 21 36l10 37l-119 232z" />
<glyph unicode="Y" horiz-adv-x="1486" d="M2 1100l4 82q0 150 123 241q102 74 231 74q135 0 232 -51l209 -113q43 0 63 23q16 25 23 71q0 43 19 65q16 16 36 16q6 0 12 -1q10 -8 14.5 -17t4.5 -26q0 -31 -17 -47q-14 -10 -28 -37l-39 -86v-106l47 51q37 35 61 37q20 0 38 6t40 18q41 20 68 58q6 10 20 28 q6 8 15 19q18 18 39 18q12 0 34 -12q45 -25 76 -137q16 -68 26.5 -152t10.5 -178v-37q0 -106 -10 -239l-19 -273q0 -31 11.5 -70.5t39.5 -109.5q23 -63 23 -102q0 -57 -84 -140q-68 -68 -88 -98q-51 -63 -115 -162l-51 -84q-20 12 -60 32t-57 26q-135 61 -233 61 q-127 0 -232.5 -35t-128.5 -94q-6 -23 -14 -60.5t-12 -72.5l-8 -55l-31 39q-33 59 -33 127l2 45q0 18 10 49l31 71q49 82 137 138q123 71 307 71h5q111 0 190.5 -4t136.5 -16q76 -10 125 -47l-16 14q-39 41 -68 115l-53 162l-22 71l-17 -22q-35 -55 -63 -84 q-45 -41 -76 -105l-21 -53h-18q-72 0 -137 12q-106 20 -193 78q-125 84 -188 172q-100 131 -101 309l3 35v29q0 90 30.5 169t87.5 157q70 96 183 161q80 45 94 45q-104 -123 -127 -186q-12 -39 -18.5 -82t-6.5 -115q0 -139 31 -219q33 -94 139.5 -186t222.5 -92v985 q-59 -47 -206 -47h-103q-51 6 -76 8q-188 0 -281 -41t-93 -137q0 -25 1 -39t8 -42t39 -46.5t50 -20.5h10l-12 -6l-35 -8q-20 0 -46 9t-52 28q-43 31 -58.5 66.5t-15.5 101.5zM889 289q106 0 135 41q10 16 21.5 37.5t19.5 48.5q2 14 6 18v123h-182v-268zM889 578h182v114 h-182v-114zM889 711h182v366v19q0 27 -6 43q-12 51 -57 51q-10 2 -19 2q-29 0 -55 -14l-45 -29v-438z" />
<glyph unicode="Z" horiz-adv-x="1116" d="M-8 2l454 762h-116q-162 0 -166 -31l4 31q12 68 43 98q18 16 72 23l237 4l213 354l-98 17q-117 18 -176 18h-33q-27 4 -41 6q-104 18 -133 19q-43 0 -76 -11.5t-57 -42.5l26 49l58 95q16 23 34.5 46t38.5 44l23 24l86 -14q55 -10 106.5 -15t65.5 -8l25 -2h26q49 0 80 2 q150 10 178 11l150 14l-344 -606l121 -2h100l78 2q18 4 35 16q-4 -20 -9 -24q-6 -14 -16 -32t-29.5 -43.5t-53.5 -35.5t-93 -10l-109 2l-96 2l-285 -504l115 -14l193 -14h53h57h37q121 0 197 10q39 8 66.5 17.5t43.5 21.5l-47 -54l-74 -88l-57 -110l-14 -33l-162 12 q-82 0 -145.5 5t-112.5 10q-35 0 -137.5 -5.5t-149.5 -5.5z" />
<glyph unicode="[" horiz-adv-x="481" d="M8 756q0 201 109 397q76 139 202 272q97 97 111 101q-4 -12 -8 -21q-18 -45 -27 -65q-41 -113 -67 -254q-18 -100 -28.5 -198.5t-10.5 -201.5q0 -211 30 -411q18 -141 58 -275q14 -55 18 -70.5t13 -29.5q-12 0 -105 96q-115 123 -192 264q-102 201 -103 396z" />
<glyph unicode="\" horiz-adv-x="837" d="M10 1305l76 51l698 -1157l-75 -54z" />
<glyph unicode="]" horiz-adv-x="495" d="M12 1530q10 0 109 -100q127 -127 205 -271q110 -196 110 -397q0 -195 -102 -395q-74 -139 -193 -267q-92 -96 -104 -96l29 98q18 72 31.5 135.5t25.5 139.5q31 209 31 414q0 106 -8.5 205.5t-26.5 193.5q-29 150 -68 254q-29 82 -39 86z" />
<glyph unicode="^" horiz-adv-x="385" d="M8 1427l152 95l153 -95l-20 -41l-133 80l-129 -77z" />
<glyph unicode="_" horiz-adv-x="1107" d="M-18 -106h1075v-115h-1075v115z" />
<glyph unicode="`" horiz-adv-x="167" d="M14 1487q0 16 19 26q14 4 22 -8l15 -24l14 -107l16 -96l-51 113q-25 43 -31 73z" />
<glyph unicode="a" horiz-adv-x="684" d="M2 156v600l66 10q78 18 137 61q31 23 52.5 42.5t37.5 41.5l16 33l39 -29l94 -55l99 -47l41 -18q-31 -6 -37 -45t-8 -76t-2 -117v-102q0 -178 9 -234.5t48 -64.5l-66 -66q-20 -20 -49 -72l-10 -20l-18 10q-39 18 -60 47q-18 20 -39 72q-4 12 -8 25l-33 -19l-55 -39 q-16 -14 -47 -59l-27 -37l-43 14q-45 16 -64.5 31.5t-49.5 67.5zM190 283l9 -39q6 -14 20 -29l31 -33q10 -12 22 -16q31 0 50 24l26 39v385l8 15l17 33l8 28l2 33l-39 6l-53 12l-39 25q-23 16 -41 20l-16 -6z" />
<glyph unicode="b" horiz-adv-x="645" d="M-6 209q16 4 26.5 15.5t12.5 33.5v985l84 -63l24 41q33 45 62 65q8 8 33 19l57 8l20 -2l11 -2q-23 -8 -41 -23q-41 -37 -41 -94l-2 -406l34 15q27 12 35 17t39 28q31 29 70 80l12 20l25 -20l45 -47l39 -52l18 -24v-467q0 -45 -31 -88q-37 -55 -114 -88q-59 -23 -119 -97 l-43 -65l-119 106l-98 78zM236 303l10 -27q12 -29 30 -47q38 -51 91 -51v535q0 20 -14.5 38.5t-41.5 18.5q-23 0 -49 -26.5t-26 -47.5v-393z" />
<glyph unicode="c" horiz-adv-x="540" d="M2 231v543h23q57 0 94 7t64.5 33t43.5 46q10 12 29 39l31 47l20 -6q45 -14 90 -66q37 -47 56 -94l4 -20l-2 -27q-6 -61 -34 -89t-56 -46l-27 -14l-8 30q-14 35 -15 37q-6 12 -24.5 39t-44.5 39l-51 10v-446q0 -59 61 -119q14 -14 31 -18l43 -4h39q23 6 30 8l33 8l-33 -33 q-37 -41 -56 -55t-21.5 -16.5t-32.5 -45.5l-10 -16h-35q-47 0 -70 6q-51 12 -85 48t-62 85q-25 53 -25 90z" />
<glyph unicode="d" horiz-adv-x="643" d="M-4 735l51 8q59 16 103 48q31 27 51 83l14 52l-10 22q-12 31 -23.5 52.5t-30 46t-65.5 71.5l-43 45l29 -8l32 -8l15 -4h18h17l20 47q18 51 36.5 69.5t61.5 36.5l39 15l-8 -41l-8 -66q0 -63 57 -151l68 -101q20 -29 40.5 -57.5t49.5 -60.5l51 -56v-614h-41q-39 0 -56.5 -6 t-27.5 -10.5t-26 -16.5q-47 -31 -76 -82l-23 -53h-35q-82 0 -133 45q-49 33 -72.5 67.5t-27.5 67.5v506q-4 27 -10 33q-14 18 -37 20zM236 244q0 -33 20 -51q35 -25 115 -25l4 539q-6 35 -17 53q-16 31 -45 49l-18 12q-16 14 -37 35l-22 29v-641z" />
<glyph unicode="e" horiz-adv-x="565" d="M10 225v545h23q18 0 41.5 1t58.5 7t63.5 35t65.5 82l31 47q20 -2 37 -12q37 -14 74.5 -58.5t54.5 -97.5l6 -18l-6 -45q-4 -25 -10.5 -41.5t-20.5 -32.5l-129 -141q-10 -10 -18 -21q-18 -23 -35 -51l-23 -35v-123q0 -41 37 -71q16 -10 37.5 -18.5t40.5 -8.5 q33 0 56.5 26.5t23.5 57.5q0 14 -8 31l-21 51q0 14 14.5 22.5t22.5 8.5q23 0 36 -29t13 -64q0 -37 -35 -86q-27 -39 -63 -69q-20 -12 -58 -70l-32 -49h-35q-47 0 -72 6q-53 12 -85 47t-58.5 84t-26.5 90zM223 479l72 74q29 35 29 70q0 29 -34 80t-67 51v-275z" />
<glyph unicode="f" horiz-adv-x="651" d="M-6 848l6 31q10 37 25 51q6 6 24.5 11t54.5 5h21v176l33 6q78 16 134 58.5t83 85.5l14 37l25 -9l55 -6l59 -6h33q0 -23 -4 -31q-6 -35 -37 -69q-18 -23 -63 -35q-20 -4 -38 -6t-44 -2h-23l-8 2v-201h121q45 0 70 10l-7 -14l-32 -47q-16 -18 -41 -25l-111 -2l-2 -653 q0 -35 20 -55l46 -21l-27 -22l-51 -47l-60 -80l-28 39q-10 14 -19.5 27.5t-34 40t-71.5 59.5l-39 24q27 8 34 15.5t11 37.5l2 635h-76q-49 0 -55 -20z" />
<glyph unicode="g" horiz-adv-x="673" d="M-76 -297l2 49l8 49q14 57 99 99q90 39 166 39q49 0 137 -11l67 -10l-14 31l-24 61l-15 68l-6 76l-33 -17q-12 -8 -31.5 -21.5t-25.5 -19.5l-47 -57l-27 -39l-43 14q-20 8 -35.5 15.5t-31 19.5t-47.5 62l-21 47v602l37 4q92 16 166 67q43 31 74 68q14 14 30 47l41 -26 q25 -16 35 -23q27 -16 61 -37l97 -43l41 -18q-37 -6 -47 -84l-2 -256q0 -211 13 -337t46 -136l-27 -15q-70 -39 -125 -100q-35 -35 -57 -84q-14 -31 -23 -80l-18 25q-61 55 -201 55q-115 0 -176 -86q-14 -23 -37 -88v16zM190 287l5 -25q6 -27 24 -45l29 -33q10 -12 24 -16 q31 0 47 25l31 38v383l23 52q2 6 3 11l3 15l2 33l-39 8l-53 12q-20 10 -39 25.5t-35 17.5l-20 -6z" />
<glyph unicode="h" horiz-adv-x="720" d="M-2 172l20 6q18 10 21 43l2 1020l80 -67l26 43q29 45 60 67q18 12 45 19l51 6h21l-35 -25q-43 -43 -43 -94v-399v-17q39 0 63 23l45 51l37 61q4 16 17 37l34 -10q43 -16 64.5 -37.5t44.5 -87.5l14 -57v-543q0 -25 19 -37q16 -6 43 -10h12l-25 -25l-45 -53l-37 -66 l-22 -43l-61 74l-43 41l-29 25v540q0 33 -13.5 57.5t-52.5 24.5q-18 0 -41 -14q-14 -12 -26 -33v-10v-477q0 -39 32 -60l33 -12l-26 -20l-50 -50l-45 -55l-10 -16l-24 37l-56 67q-23 23 -30 29t-33 22z" />
<glyph unicode="i" horiz-adv-x="423" d="M2 782l25 19l45 45l67 94l29 -25l61 -47l64 -43l31 -18l-48 -53v-549q0 -23 29 -45l29 -13l-21 -20l-32 -41l-68 -84l-20 27l-54 59q-16 16 -28 27q-18 16 -39 28l-39 21q14 2 16 4q27 14 37 63v467l-8 19l-21 31l-34 22zM98 1184q0 18 7.5 31.5t27.5 31.5q39 31 133 43 l84 6l-41 -34l-88 -82q-27 -29 -47 -99l-20 -63v37q0 23 -19 41l-24 39q-12 29 -13 49z" />
<glyph unicode="j" horiz-adv-x="417" d="M-27 -217q0 31 17.5 53.5t50.5 22.5q31 0 49.5 -19.5t18.5 -70.5q0 -43 7 -56.5t27 -13.5q29 0 39 10q18 16 19 60l2 32l2 23q0 25 -8 41l-23 35q-12 16 -57 55q-25 20 -27 47v694l-6 17q-8 18 -25 30l-41 31l-10 6l23 21l45 41l67 94l25 -25l63 -51l76 -45l19 -10 l-47 -55v-687l24 -81q10 -37 10 -74q0 -92 -41 -154q-57 -88 -174 -88q-55 0 -90 25q-35 31 -35 92zM119 1188q0 31 38 60.5t132 41.5l82 4l-41 -32q-57 -47 -86 -80t-51 -101l-19 -61l2 18l-2 27q-2 12 -18 35l-23 37q-10 23 -14 51z" />
<glyph unicode="k" horiz-adv-x="718" d="M-8 182q18 4 20 6q16 12 21 43l2 1004l84 -68l26 43q10 14 23 31q20 27 37.5 39t44.5 18l51 7h21h8l-41 -27q-43 -41 -43 -98v-406q6 -2 12 -2q24 0 61 29l46 41l65 76l19 22l65 -78l43 -37q31 -31 31 -51q0 -27 -7.5 -40t-41.5 -48q-12 -18 -45 -45l-29 -23l33 -24 l55 -57q23 -23 33 -74l2 -21v-202q0 -33 28 -45l29 -7l-24 -24q-33 -31 -46 -51l-40 -64l-25 -41l-18 25q-18 29 -37 47l-37 37l-27 20v219q0 16 -5 33t-15 33q-23 37 -52 41l-16 -4q-23 -6 -36 -19.5t-23 -38.5v-186q0 -39 30 -61l33 -13l-24 -20q-33 -31 -47 -49l-50 -60 l-10 -16l-29 39q-33 45 -57 67q-18 25 -61 56zM244 500h24q33 10 49 22l43 37q14 10 31 45q4 8 11.5 28t11.5 34l4 20q0 29 -21.5 48.5t-66.5 19.5q-23 0 -49 -29l-37 -49v-176z" />
<glyph unicode="l" horiz-adv-x="397" d="M-4 174l20 6q20 12 23 43v1010l84 -70l27 43q29 43 63 72q18 12 43 18l53 7h21l10 -3q-29 -12 -45 -24q-45 -39 -45 -96v-971q0 -41 35 -62l30 -10l-26 -22l-53 -49l-43 -60l-11 -16l-28 39l-56 67q-23 27 -65 54z" />
<glyph unicode="m" horiz-adv-x="1073" d="M-12 782l20 17q29 20 47 47l72 94l23 -14q27 -16 48 -43t38 -74l8 -35q55 0 80 23l45 51l37 61q4 16 16 37l18 -6q47 -18 78 -45q23 -16 41 -78l14 -45q49 0 82 23l43 49q18 23 25.5 35t19.5 41l9 20l34 -10q33 -10 64 -35q25 -25 45 -84l14 -57v-535q0 -31 37 -43l39 -2 l-27 -27l-43 -49l-36 -61l-23 -37l-63 61l-43 39l-27 23v536q0 43 -18.5 61.5t-47.5 18.5q-39 0 -57 -20.5t-25 -48.5v-449q0 -35 39 -43l37 -4l-16 -14l-53 -60l-60 -100l-63 66l-41 38l-29 23v535q0 43 -17.5 60t-47.5 17q-53 0 -76 -49q-6 -23 -6 -61v-371q0 -61 34 -88 l39 -16l-16 -11l-53 -49q-8 -10 -16.5 -23.5t-18.5 -33.5l-16 -37l-23 37l-45 59q-6 6 -26.5 19.5t-41.5 27.5l-47 23l6 24l13 31q10 20 16 25l8 10v446q0 39 -32 66z" />
<glyph unicode="n" horiz-adv-x="737" d="M-12 791l20 16l47 45l68 94l24 -12q29 -18 50.5 -49t33.5 -68l11 -35q53 0 82 21l41 51q23 27 45 76l8 22l37 -12q39 -16 61 -39q25 -18 45 -82l14 -55v-539q0 -31 37 -41l39 -2l-26 -26l-43 -50l-37 -67l-23 -41l-63 72l-41 41l-29 22v535q0 39 -12 53q-14 27 -53 27 q-57 0 -78 -52q-6 -23 -6 -63v-371q0 -55 36 -86q6 -6 37 -16l-24 -21l-47 -43q-6 -6 -18.5 -28.5t-20.5 -40.5l-10 -25l-23 37q-8 14 -23.5 35.5t-19.5 25.5q-14 14 -70 47l-49 25l6 25l15 28l16 27l10 10v449q0 41 -35 63z" />
<glyph unicode="o" horiz-adv-x="626" d="M-6 745h31h20q12 4 16 5q72 8 128.5 53t103.5 112l16 31q14 -2 27.5 -4t28.5 -8q63 -20 96 -66q35 -41 57 -86l14 -32v-578q-57 0 -75 -4q-43 0 -67.5 -9t-45.5 -30q-27 -31 -53 -80l-23 -47h-18q-45 0 -74 10q-51 16 -80.5 55t-56.5 91l-14 32v474q0 41 -21 69zM215 252 q0 -23 16 -39l33 -29q16 -10 39 -14l41 -2v506q0 20 -8 35q-2 10 -27 30q-8 6 -16 11q-20 10 -43 14l-35 6v-518z" />
<glyph unicode="p" horiz-adv-x="700" d="M-41 -469l29 35q29 37 39 72l14 67l2 35v43v297l2 612v21q-8 43 -51 51l76 76q25 31 26 32q12 16 25 41l10 15l27 -23q27 -20 51 -53l31 -61q6 -18 12 -27q53 0 88 27q6 6 24.5 27.5t26.5 33.5q16 20 39 63l16 33l27 -16q63 -41 79.5 -61.5t39.5 -63.5l16 -39v-424 q-4 -41 -7 -53t-13 -35q-41 -94 -150 -147q-63 -29 -94 -91l-18 -53q-18 27 -56 37l-32 2v-260v-94q0 -20 14 -43l12 -19l-49 39q-12 8 -25 35l-8 25l-24 -31q-20 -27 -29 -37q-16 -20 -29 -33q-23 -31 -86 -45zM252 188l8 -16q8 -12 29 -27l49 -14q19 -4 68 -4v498l-9 47 q-18 51 -71 51q-43 0 -64 -47l-10 -47v-441z" />
<glyph unicode="q" horiz-adv-x="651" d="M-4 162v600l37 4q88 12 164 65q31 23 52 42.5t38 41.5l16 31l21 -14l110 -68q31 -16 50.5 -25.5t50.5 -21.5l40 -18q-29 -2 -45 -37l-4 -31l4 -1014q0 -25 13 -47l10 -18l-49 41q-12 8 -25 35l-6 24l-22 -33l-54 -65q-31 -31 -86 -45l-55 -8l29 32q27 33 26 35 q8 12 15 33l10 63l2 37v316l-21 2l-41 -4q-14 -2 -30 -19l-45 -55l-27 -39l-41 14q-47 16 -67.5 31.5t-47.5 67.5zM182 287l4 -25q6 -27 25 -45l31 -33q12 -12 22 -14q27 0 49 25l17 24l12 12v498l-25 14q-8 4 -24.5 9.5t-28.5 7.5l-41 14q-20 10 -39 10z" />
<glyph unicode="r" horiz-adv-x="659" d="M-18 788l30 27l58 53l32 47l19 31l26 -16q31 -14 48 -39l34 -53l17 -31l16 10q35 23 53 43l31 45l14 27l15 -6q41 -12 69 -13l99 2l41 5l-37 -25q-16 -14 -33.5 -31.5t-38.5 -42.5q-8 -10 -26.5 -37.5t-30.5 -50.5l-19 -43q-12 33 -30.5 55.5t-49.5 24.5q-31 0 -53 -24.5 t-22 -59.5v-360q0 -49 8 -74q16 -74 67 -74q29 0 40.5 11.5t11.5 54.5l-11 24q-26 38 -26 57q0 17 13 30.5t30 13.5q16 0 30.5 -18.5t14.5 -47.5q0 -43 -14 -78q-23 -53 -82 -92q-37 -31 -80 -82l-35 -49l-27 31q-35 41 -80 84l-63 57l-21 19q14 0 24.5 17t10.5 48v465 q0 37 -37 53z" />
<glyph unicode="s" horiz-adv-x="696" d="M2 2q0 68 47 150q6 10 18.5 27.5t28.5 33.5l146 195q-35 6 -56 20q-123 66 -123 227v103h27q33 0 62.5 9t66.5 30q47 31 98 90q6 6 16.5 17t28.5 38l23 -37q29 -37 74 -53l67 -10l58 -4h14l-45 -76q-20 -29 -35 -68l-4 -12l-12 4l-72 -96l55 -19q119 -63 119 -215 q0 -121 -47 -163q-68 -31 -125 -66l-106 -90l-37 -37l-41 33q-44 30 -85 30h-3q-39 0 -70 -36q-25 -37 -24 -82q0 -51 36 -95q49 -55 123 -55q109 0 168 47q18 14 39 52q-8 -18 -17 -34t-22 -26q-59 -59 -168 -59q-117 0 -176 71q-23 27 -35 66t-12 90zM152 221l12 10 q25 10 59 11q49 0 121 -39l64 -41l4 26v88q0 76 -62 107q-18 8 -65 14zM236 762l6 -53q8 -57 23.5 -80t64.5 -35l41 -8l82 112l-43 7l-45 4q-43 0 -91 24z" />
<glyph unicode="t" horiz-adv-x="499" d="M-39 973l41 20q84 45 152 103q51 51 104 127l49 75v-266h101l-101 -84v-710q0 -45 35 -64l37 -10l-29 -25l-57 -57q-16 -20 -24.5 -29.5t-22.5 -34.5l-13 -16l-32 43l-64 76q-23 27 -69 61l-41 27q20 4 30.5 13t16.5 40l-2 658q0 31 -56 45z" />
<glyph unicode="u" horiz-adv-x="808" d="M-8 780l31 27l53 51q20 20 41 60l10 20l25 -12q27 -14 50 -43t40 -74l10 -41v-451q0 -35 4 -51l18 -45q12 -23 43 -39q37 -14 60 -14l20 6l-4 25v522q0 29 -37 51l-37 12l31 27l53 49q20 25 23.5 29t13.5 22l17 31l39 -20q14 -8 35.5 -35t37.5 -74l11 -39v-452l6 -50 q2 -18 17 -45.5t48 -42.5q16 -8 30.5 -12t33.5 -4q12 0 18 6l-86 -68q-43 -39 -55 -102l-23 -2q-31 0 -53 12.5t-47 38.5q-41 45 -68 103l-84 -62q-43 -37 -55 -94l-22 -2q-20 0 -41 6t-60 41q-10 12 -25.5 32.5t-27.5 43.5q-23 39 -23 74v520q0 29 -34 51z" />
<glyph unicode="v" horiz-adv-x="700" d="M-8 784l31 27q10 10 22 20q20 18 31 33l35 47l16 31l25 -12q31 -16 52 -43t38 -74l8 -39v-452l6 -50q2 -14 16 -47q18 -25 45 -39q31 -12 60 -12q14 0 19 4t8.5 14.5t5.5 20.5l4 90v416q0 31 -33 49l-37 10l35 23l59 55l51 68l11 16l24 -14l19 -19q20 -18 31.5 -35.5 t31.5 -70.5l8 -21v-254q0 -119 -34 -182q-23 -39 -60 -80t-106 -98l-60 -49q-41 -39 -57 -119h-25q-43 0 -73.5 11t-56 39t-31.5 36q-12 14 -25 41q-20 39 -20 72v522q0 35 -37 53z" />
<glyph unicode="w" horiz-adv-x="1024" d="M-12 780l30 27l54 51q20 20 41 60l8 20l39 -20q16 -8 39 -37q10 -10 19 -30t18 -42l10 -41v-451l6 -51l18 -45q12 -23 43 -39q37 -14 58 -14l20 4l-4 27v522q0 29 -37 51l-39 12l33 27l55 53q12 12 39 60l11 18l24 -12q31 -16 53 -45q10 -10 19.5 -29.5t17.5 -42.5 l10 -39v-452q0 -35 5 -50l16 -47q16 -23 45 -37t57 -14l23 4q14 10 14 47l2 80v416q0 29 -33 47l-34 10l32 23l60 55l43 55l20 29l15 -8q33 -23 59 -62l33 -69l6 -21l2 -254q0 -113 -39 -185.5t-164 -172.5q-70 -59 -73 -68q-33 -37 -46 -100l-22 -2q-47 0 -78 13.5 t-53 41.5q-45 49 -66 101l-84 -60q-43 -35 -55 -94l-22 -2q-25 0 -47.5 8t-51.5 41l-57 74q-20 41 -21 74v520q0 29 -36 51z" />
<glyph unicode="x" horiz-adv-x="1030" d="M8 59q0 51 42 97.5t87 52.5l84 6l98 -6l41 -6l99 225l-21 43h-65l-60 2q-45 0 -63 -4q-27 0 -29 -14l6 30q14 35 25.5 45.5t36.5 16.5l71 2h35q-37 66 -62.5 106.5t-53.5 75.5q-68 86 -115 86q-14 0 -19 -4l29 16q10 6 28.5 18.5t26.5 20.5q23 18 29 25q18 23 27 33 l10 18l33 -6q90 -47 229 -293l131 297l17 -10q10 -4 26.5 -8t38.5 -4h31q14 0 39 4l49 10l4 -27q0 -10 -3 -21.5t-5 -15.5q-14 -20 -21 -24l-45 -39q-18 -12 -65 -12h-62l-33 2l-84 -191l13 -24l18 -33h56h30h21l47 2q18 6 22 10l-6 -16q-6 -16 -33 -45q-6 -18 -30 -25 l-62 -6q164 -301 189.5 -319.5t72.5 -32.5l23 -6l-27 -15l-39 -28l-84 -86l-53 36q-57 43 -80 78l-65 103l-49 -52l-35 -41q-20 -23 -45 -69l-21 -39l-65 20l-35 11l-31 2l-10 -19q-10 -18 -41 -45l-41 -35q-8 -4 -29.5 -6t-54.5 -2q-66 0 -94.5 36t-28.5 99zM90 -12 q6 -18 23.5 -29.5t42.5 -11.5q12 0 41.5 10t58.5 45l25 31l-41 16q-14 4 -40 6t-34 2q-10 0 -25.5 -8t-29.5 -18q-20 -18 -21 -43zM395 197l23 -13l35 -6h30q37 0 47 8l13 15l10 16l10 29l-84 147z" />
<glyph unicode="y" horiz-adv-x="706" d="M-55 -324q0 88 69 160q84 86 213 86q82 0 160 -18l59 -17q-37 37 -47 66l-8 80v112l-98 -71q-25 -27 -31 -76l-22 -2q-27 0 -56 12l-47 37l-51 66q-23 35 -23 82v516q0 31 -38 51l-37 14l30 27l58 51l41 61l8 19l12 -4q37 -14 62 -49q29 -33 41 -78l8 -39v-447 q0 -27 4 -43q0 -20 18 -55q12 -20 43 -34.5t58 -14.5q14 0 20 4v545q0 31 -37 51l-37 12l33 27q20 16 31.5 27.5t19.5 23.5l31 47l19 31l14 -6q35 -12 63 -47q18 -25 35 -76l10 -37v-762l9 -24q12 -25 49 -25l-53 -39q-66 -49 -102 -87t-64 -99l-25 -62q-20 27 -43 39 q-33 20 -76 31.5t-90 11.5q-115 0 -172 -47q-33 -29 -41 -104q-20 27 -20 73z" />
<glyph unicode="z" horiz-adv-x="759" d="M-14 0l280 469h-41h-24l-74 -4q-18 -2 -25 -16l15 36q18 41 32.5 53.5t47.5 18.5l120 4l132 211l-54 10l-102 11l-74 4l-61 4l-54 -6q-20 -6 -28 -21l18 35l39 63l47 60l15 18l67 -14q74 -12 123 -12l14 -2h19l157 10l91 10l-217 -381h131l41 2q16 4 20 8l-10 -24 l-27 -41q-18 -25 -54 -31t-153 -6l-166 -291l62 -10l113 -8h63l135 6h4q50 0 84 24l-30 -32l-54 -62l-30 -65l-15 -33l-266 16l-186 -6h-68q-37 -6 -57 -8z" />
<glyph unicode="{" horiz-adv-x="479" d="M0 750q0 201 106 393q78 141 203 270q97 98 109 98q-4 -12 -8 -20q-18 -43 -27 -66q-18 -53 -35.5 -118.5t-32.5 -130.5q-16 -98 -26 -198.5t-10 -197.5q0 -209 30 -409q18 -139 56 -273q16 -55 21 -69.5t11 -28.5q-14 0 -104 96q-113 119 -191 262q-102 195 -102 392z " />
<glyph unicode="|" horiz-adv-x="178" d="M0 1518h125l-2 -1520h-119z" />
<glyph unicode="}" horiz-adv-x="471" d="M0 1516q14 0 106 -99q121 -121 203 -268q109 -200 109 -395q0 -197 -101 -389q-74 -137 -190 -265q-86 -92 -104 -96l30 98q18 68 31.5 133.5t24.5 139.5q31 207 30 409q0 203 -35 396q-25 127 -67 250q-14 43 -31 73q-2 4 -6 13z" />
<glyph unicode="~" horiz-adv-x="575" d="M2 1333l6 37q8 35 25.5 56.5t69 34t186.5 12.5q127 0 167 11t58 29l-8 -28l-25 -45q-20 -35 -69 -51q-61 -12 -168 -13q-55 0 -98.5 -2t-90.5 -10t-53 -31z" />
<glyph unicode="&#xad;" d="M10 629l8 37q10 39 25.5 53t42.5 20l107 2h165h168h64q31 1 51 15l-6 -17q-8 -23 -37 -57q-12 -20 -41 -28.5t-88 -8.5h-68h-71h-27l-104 2l-86 2q-96 0 -103 -20z" />
<glyph unicode="&#xae;" horiz-adv-x="1034" d="M0 1186q0 88 84 149q74 51 158 51q57 0 88 -55l18 -53q-14 29 -22 37q-35 41 -95 41q-41 0 -73.5 -29t-32.5 -72q0 -51 29.5 -81.5t107.5 -30.5q37 0 71 8t85 31q195 86 315 86q98 0 152.5 -50.5t54.5 -138.5q0 -76 -80 -153l-127 -117q-33 -39 -63 -100l-11 -27 q-12 41 -26 57q-20 23 -49 21q-76 0 -76 -82v-356q0 -49 8 -72q16 -72 68 -72q20 -2 29.5 4t19.5 54q-2 8 -6 17t-13 23q-18 35 -18 48q0 12 14.5 26.5t28.5 14.5q18 0 33 -21q14 -14 14 -43q0 -47 -14 -78q-25 -53 -78 -94q-41 -27 -84 -80l-35 -47l-29 31l-75 84l-62 57 l-20 16q18 0 24 21l6 45v461q0 33 -34 53l-35 10l33 27l51 53l33 47l16 29l18 -6q39 -18 60 -47l31 -54l18 -30l27 18q10 6 21 14.5t26 20.5l24 43l13 25l34 -7l68 -8h20q82 8 136 68q41 47 41 106q0 39 -31 74q-43 43 -133 43q-82 0 -158 -51l-149 -101q-98 -53 -238 -53 q-80 0 -141 49q-70 51 -70 146z" />
<glyph unicode="&#xcd;" horiz-adv-x="858" d="M-8 225l26 8q25 12 29 41l-2 1043h31q61 0 86.5 8t46 19.5t55.5 37.5q66 43 94 72l56 72q78 -25 159 -101q102 -92 103 -178q0 -78 -51 -160l-107 -161q0 -39 125 -143.5t125 -237.5q0 -111 -92 -232l-172 -186q-94 -104 -94 -172q0 -86 69 -119q14 -4 21 -4 q37 -8 53 -10h-59q-131 16 -132 100q0 109 111 239t111 222q0 111 -111 226.5t-111 166.5q0 61 91.5 149.5t91.5 159.5q0 86 -75 162t-177 92v-1065q0 -43 26 -59l46 -27l-27 -24q-14 -10 -24.5 -22.5t-19.5 -22.5t-21.5 -25.5t-24.5 -34.5l-37 -63l-49 74l-51 55l-56 53 q-20 18 -34.5 28.5t-28.5 18.5z" />
<glyph unicode="&#xdf;" horiz-adv-x="1374" d="M2 4q0 74 47 150q8 14 20.5 30.5t26.5 30.5l144 188q-63 18 -90 43q-90 72 -91 207v101h29q72 6 127 43q41 20 98 86l45 57q2 -10 13 -25q31 -51 88 -67l57 -12l49 -5h15l57 60q25 25 56.5 53.5t43.5 38.5q66 47 127.5 60.5t175.5 13.5q98 0 174 -76.5t76 -189.5 q0 -127 -80 -220.5t-217 -93.5q-82 0 -131 43l-35 47l33 -26q45 -29 103 -29q74 0 124 62.5t50 168.5q0 115 -60 183q-55 70 -153 69q-35 0 -59.5 -2t-49.5 -10q-43 -8 -86 -43q-20 -14 -55 -52t-84 -95l-94 -111l-70 -94q57 -14 90 -41q88 -66 88 -191q0 -121 -49 -163 q-68 -31 -123 -67t-110 -89l-39 -37l-37 33q-49 33 -86 33q-43 0 -71 -36t-28 -85q0 -43 39 -95q49 -55 125 -55q104 0 166 49l37 50l-18 -37q-57 -80 -185 -80q-119 0 -178 71q-45 61 -45 156zM150 221l12 10q20 10 57 11q49 0 121 -39l63 -39l5 10l2 100q0 76 -64 107 q-16 8 -63 14zM236 758l4 -53q10 -59 25.5 -81t60.5 -34l41 -6l86 108l-21 4l-72 6q-18 0 -40.5 8.5t-45 20.5t-38.5 27z" />
<glyph unicode="&#xfd;" horiz-adv-x="0" />
<glyph unicode="&#x2000;" horiz-adv-x="765" />
<glyph unicode="&#x2001;" horiz-adv-x="1530" />
<glyph unicode="&#x2002;" horiz-adv-x="765" />
<glyph unicode="&#x2003;" horiz-adv-x="1530" />
<glyph unicode="&#x2004;" horiz-adv-x="510" />
<glyph unicode="&#x2005;" horiz-adv-x="382" />
<glyph unicode="&#x2006;" horiz-adv-x="255" />
<glyph unicode="&#x2007;" horiz-adv-x="255" />
<glyph unicode="&#x2008;" horiz-adv-x="191" />
<glyph unicode="&#x2009;" horiz-adv-x="306" />
<glyph unicode="&#x200a;" horiz-adv-x="85" />
<glyph unicode="&#x2010;" d="M10 629l8 37q10 39 25.5 53t42.5 20l107 2h165h168h64q31 1 51 15l-6 -17q-8 -23 -37 -57q-12 -20 -41 -28.5t-88 -8.5h-68h-71h-27l-104 2l-86 2q-96 0 -103 -20z" />
<glyph unicode="&#x2011;" d="M10 629l8 37q10 39 25.5 53t42.5 20l107 2h165h168h64q31 1 51 15l-6 -17q-8 -23 -37 -57q-12 -20 -41 -28.5t-88 -8.5h-68h-71h-27l-104 2l-86 2q-96 0 -103 -20z" />
<glyph unicode="&#x2012;" d="M10 629l8 37q10 39 25.5 53t42.5 20l107 2h165h168h64q31 1 51 15l-6 -17q-8 -23 -37 -57q-12 -20 -41 -28.5t-88 -8.5h-68h-71h-27l-104 2l-86 2q-96 0 -103 -20z" />
<glyph unicode="&#x2013;" horiz-adv-x="1083" d="M10 629l13 37q16 39 41.5 53t68.5 20l174 2h268h272h104q51 1 83 15l-10 -17q-13 -23 -60 -57q-19 -20 -66 -28.5t-143 -8.5h-110h-116h-44l-168 2l-140 2q-156 0 -167 -20z" />
<glyph unicode="&#x2014;" horiz-adv-x="2107" d="M10 629l26 37q32 39 82.5 53t138.5 20l347 2h535h546h207q101 1 166 15l-19 -17q-26 -23 -121 -57q-39 -20 -133 -28.5t-285 -8.5h-221h-230h-88l-338 2l-279 2q-311 0 -334 -20z" />
<glyph unicode="&#x201c;" horiz-adv-x="563" d="M45 1237q0 76 102 176l119 103l-73 -127q-29 -53 -29 -84q0 -56 102 -115q-90 -80 -145 -80q-76 0 -76 127zM291 1237q0 78 104 176l119 103l-76 -127q-12 -25 -19 -45.5t-9 -38.5q0 -56 104 -115q-92 -80 -147 -80q-76 0 -76 127z" />
<glyph unicode="&#x201d;" horiz-adv-x="536" d="M16 1106l72 125q29 57 29 84q0 53 -101 117q90 80 148 79q76 0 76 -127q0 -78 -103 -176zM262 1106l72 125q27 49 31 84q0 51 -103 117q90 80 148 79q75 0 75 -127q0 -80 -102 -176z" />
<glyph unicode="&#x202f;" horiz-adv-x="306" />
<glyph unicode="&#x205f;" horiz-adv-x="382" />
<glyph unicode="&#x25fc;" horiz-adv-x="942" d="M0 0v942h942v-942h-942z" />
</font>
</defs>
</svg>
